<?xml version="1.0" standalone="no"?>
<!DOCTYPE svg PUBLIC "-//W3C//DTD SVG 20010904//EN"
 "http://www.w3.org/TR/2001/REC-SVG-20010904/DTD/svg10.dtd">
<svg version="1.0" xmlns="http://www.w3.org/2000/svg"
 width="515.000000pt" height="515.000000pt" viewBox="0 0 515.000000 515.000000"
 preserveAspectRatio="xMidYMid meet">
<metadata>
Created by potrace 1.14, written by Peter Selinger 2001-2017
</metadata>
<g transform="translate(0.000000,515.000000) scale(0.100000,-0.100000)"
fill="#000000" stroke="none">
<path d="M2379 5146 c-2 -2 -35 -7 -74 -10 -38 -4 -95 -11 -125 -16 -30 -5
-71 -12 -90 -15 -118 -19 -458 -122 -484 -146 -6 -5 -16 -9 -23 -9 -19 0 -194
-86 -293 -144 -79 -46 -269 -172 -280 -186 -3 -3 -27 -24 -55 -45 -89 -71
-111 -94 -95 -98 425 -128 664 -248 968 -487 196 -153 286 -203 433 -239 119
-30 147 -33 284 -35 106 -1 144 2 245 17 98 16 319 99 321 121 0 6 2 18 4 26
30 136 43 285 40 475 -2 166 -8 239 -31 370 -17 103 -88 361 -103 377 -7 8
-86 24 -158 34 -46 5 -479 14 -484 10z"/>
<path d="M3374 4999 c15 -55 55 -248 61 -299 4 -30 8 -57 10 -60 2 -3 7 -57
11 -120 15 -224 7 -418 -26 -609 -16 -89 -15 -93 48 -139 78 -57 206 -182 273
-267 145 -184 249 -407 294 -630 9 -44 18 -81 20 -84 3 -2 40 11 82 30 283
122 531 295 750 522 l102 106 -40 98 c-268 648 -790 1165 -1429 1416 -164 64
-164 64 -156 36z"/>
<path d="M549 4163 c-153 -191 -306 -468 -393 -708 -34 -97 -90 -289 -100
-350 -3 -16 -8 -41 -11 -55 -5 -24 -10 -54 -20 -115 -27 -164 -27 -636 0 -718
2 -7 6 -30 9 -52 7 -55 14 -87 20 -93 5 -4 33 20 130 113 47 45 197 157 307
228 116 76 391 217 421 217 9 0 19 4 22 9 3 4 36 18 74 30 l69 22 12 91 c47
358 241 707 521 941 l33 29 -29 24 c-33 27 -164 117 -179 123 -5 2 -17 9 -25
17 -33 28 -280 148 -392 190 -113 43 -298 95 -383 108 -39 6 -41 5 -86 -51z"/>
<path d="M1764 3098 c-3 -5 9 -25 27 -46 92 -106 176 -155 261 -151 29 1 63
-1 75 -5 27 -9 68 -67 107 -150 15 -32 29 -56 33 -53 11 12 12 267 1 292 -6
13 -23 29 -37 35 -43 17 -461 87 -467 78z"/>
<path d="M3346 3099 c-15 -4 -51 -10 -78 -13 -27 -3 -53 -8 -56 -10 -4 -2 -29
-7 -57 -11 -27 -3 -92 -14 -143 -24 -131 -25 -136 -32 -135 -163 1 -83 5 -154
12 -187 1 -2 21 36 46 84 59 114 72 125 148 125 33 0 77 5 98 12 45 13 137 85
186 144 36 45 30 57 -21 43z"/>
<path d="M5040 3054 c-44 -45 -213 -186 -302 -251 -140 -102 -355 -216 -582
-308 -149 -60 -199 -84 -261 -124 -63 -41 -75 -52 -150 -127 -184 -185 -305
-445 -331 -713 -6 -61 -5 -64 22 -88 16 -13 40 -34 54 -46 32 -29 208 -157
214 -157 3 0 24 -13 48 -29 142 -96 399 -205 612 -260 174 -46 170 -45 203 -7
57 67 69 83 151 206 133 200 250 445 316 665 33 109 36 118 40 142 2 10 9 36
15 58 5 22 13 56 16 75 2 19 10 62 15 95 22 124 28 236 25 435 -2 113 -6 216
-9 230 -2 14 -7 48 -10 75 -8 75 -25 158 -34 167 -4 4 -28 -13 -52 -38z"/>
<path d="M1155 2400 c-11 -5 -58 -23 -105 -41 -319 -124 -603 -318 -853 -586
l-48 -51 15 -44 c73 -213 222 -479 385 -688 36 -47 73 -92 81 -101 222 -233
326 -325 512 -450 147 -99 315 -188 479 -253 134 -53 144 -55 135 -23 -31 111
-57 267 -73 432 -18 192 -6 452 29 660 47 283 27 432 -92 681 -79 164 -205
316 -355 429 -61 46 -75 50 -110 35z"/>
<path d="M2290 2396 c0 -2 42 -31 93 -64 133 -87 130 -82 135 -218 5 -137 0
-148 -90 -197 -35 -19 -92 -51 -128 -71 -36 -20 -91 -48 -122 -64 -32 -15 -56
-31 -55 -37 2 -5 24 -17 48 -27 l45 -16 173 84 c211 104 180 105 406 -16 55
-29 111 -56 125 -60 26 -7 105 18 110 35 1 5 -35 29 -81 53 -275 143 -284 149
-305 188 -14 25 -16 50 -12 130 7 139 17 155 150 230 46 26 85 48 87 50 2 2
-127 4 -287 4 -161 0 -292 -2 -292 -4z"/>
<path d="M3120 1179 c-106 -42 -267 -84 -378 -97 -81 -9 -307 -8 -362 2 -77
14 -146 27 -167 32 -12 2 -62 18 -110 34 -94 32 -104 34 -101 23 2 -8 -10
-118 -19 -168 -7 -43 -6 -330 1 -395 10 -84 18 -143 22 -165 3 -11 7 -36 10
-55 9 -57 43 -190 70 -271 l25 -77 45 -7 c25 -3 56 -8 67 -11 133 -26 580 -25
718 1 13 3 41 7 64 11 221 32 540 139 760 255 185 98 514 328 515 360 0 4 -28
14 -62 24 -223 62 -526 204 -723 339 -73 50 -212 156 -242 185 -12 12 -26 21
-30 20 -4 -1 -51 -18 -103 -40z"/>
</g>
</svg>
