<svg width="136" height="45" viewBox="0 0 136 45" fill="none" xmlns="http://www.w3.org/2000/svg">
<g clip-path="url(#clip0_575_472)">
<path d="M61.1349 31.2639C61.1542 31.1613 61.1467 31.0741 61.1122 31.0021C61.08 30.9301 61.0304 30.869 60.9637 30.8189C60.8991 30.7687 60.8249 30.7261 60.741 30.6912C60.6593 30.6541 60.5796 30.6203 60.5021 30.5897C60.3343 30.5221 60.1685 30.4457 60.005 30.3607C59.8415 30.2734 59.693 30.1709 59.5595 30.0531C59.4261 29.9352 59.3217 29.7978 59.2464 29.6407C59.1733 29.4836 59.142 29.2993 59.1528 29.0877C59.1679 28.8455 59.2357 28.6371 59.3562 28.4626C59.4767 28.288 59.6306 28.1462 59.8178 28.0372C60.0071 27.9259 60.2105 27.8452 60.4279 27.795C60.6474 27.7427 60.8615 27.7186 61.0703 27.723C61.3673 27.7274 61.6319 27.7884 61.8644 27.9063C62.099 28.0241 62.2829 28.1932 62.4164 28.4136C62.5498 28.6317 62.6143 28.8957 62.6101 29.2055H61.5158C61.52 29.0833 61.5039 28.9775 61.4673 28.8881C61.4328 28.7964 61.3759 28.7255 61.2963 28.6753C61.2166 28.623 61.1133 28.5957 60.9863 28.5936C60.8809 28.5914 60.7754 28.6088 60.67 28.6458C60.5645 28.6808 60.4731 28.7354 60.3956 28.8095C60.3181 28.8837 60.2686 28.9797 60.2471 29.0975C60.2321 29.1869 60.2461 29.2655 60.289 29.3331C60.3321 29.3986 60.3913 29.4553 60.4666 29.5033C60.542 29.5491 60.6205 29.5883 60.7022 29.6211C60.7862 29.6538 60.8594 29.6822 60.9218 29.7062C61.0982 29.7738 61.2672 29.8535 61.4286 29.9451C61.5922 30.0345 61.7363 30.1403 61.8612 30.2625C61.9881 30.3847 62.085 30.5276 62.1517 30.6912C62.2205 30.8527 62.2486 31.0403 62.2356 31.2541C62.2184 31.5007 62.1538 31.7111 62.0419 31.8856C61.93 32.0602 61.7858 32.202 61.6094 32.3111C61.4328 32.4202 61.2392 32.4998 61.0283 32.55C60.8174 32.6002 60.6032 32.6242 60.3859 32.622C60.1427 32.6176 59.9157 32.5806 59.7048 32.5108C59.4939 32.4388 59.3099 32.3351 59.1528 32.1999C58.9957 32.0624 58.8741 31.8944 58.788 31.6959C58.7019 31.4952 58.6611 31.265 58.6653 31.0054L59.7726 31.0086C59.7661 31.1308 59.7736 31.2388 59.7952 31.3326C59.8189 31.4243 59.8576 31.5017 59.9113 31.565C59.9674 31.6261 60.0394 31.673 60.1277 31.7056C60.2159 31.7362 60.3225 31.7515 60.4472 31.7515C60.5527 31.7515 60.6539 31.7351 60.7507 31.7024C60.8497 31.6675 60.9336 31.614 61.0025 31.542C61.0713 31.4701 61.1154 31.3773 61.1349 31.2639ZM67.1926 27.7884H68.2967L67.7738 30.8974C67.7221 31.2617 67.6048 31.5737 67.4219 31.8333C67.2411 32.0929 67.0076 32.2904 66.7214 32.4256C66.4351 32.5609 66.1112 32.6263 65.7497 32.622C65.414 32.6154 65.1202 32.5424 64.8684 32.4028C64.6188 32.2631 64.4316 32.0656 64.3068 31.8104C64.1819 31.5551 64.14 31.2519 64.1809 30.9006L64.7038 27.7884H65.811L65.2913 30.9039C65.2741 31.0479 65.2751 31.1821 65.2946 31.3065C65.316 31.4308 65.3677 31.5322 65.4495 31.6108C65.5313 31.6894 65.6539 31.7308 65.8175 31.7351C65.9918 31.7416 66.137 31.709 66.2533 31.637C66.3716 31.565 66.4642 31.4647 66.5309 31.3359C66.5998 31.2072 66.646 31.062 66.6697 30.9006L67.1926 27.7884ZM71.7398 30.5276H70.5163L70.6422 29.7749L71.5396 29.7782C71.6709 29.7782 71.7968 29.7629 71.9173 29.7323C72.0399 29.6996 72.1432 29.6429 72.2272 29.5622C72.3132 29.4815 72.3681 29.3669 72.3918 29.2186C72.4112 29.0833 72.4004 28.9775 72.3595 28.9011C72.3186 28.8226 72.253 28.767 72.1626 28.7342C72.0744 28.6994 71.9689 28.6808 71.8463 28.6786L71.2555 28.6753L70.5906 32.5533H69.4865L70.3 27.7884L71.8818 27.7918C72.0862 27.7939 72.2885 27.8169 72.4886 27.8604C72.6888 27.9041 72.8685 27.975 73.0277 28.0732C73.187 28.1692 73.3118 28.3001 73.4022 28.4659C73.4926 28.6296 73.5302 28.8345 73.5152 29.0811C73.5001 29.3495 73.4259 29.5677 73.2924 29.7356C73.1611 29.9014 72.9911 30.0247 72.7824 30.1055C72.5736 30.184 72.3477 30.2265 72.1045 30.2331L71.7398 30.5276ZM71.3653 32.5533H69.8803L70.4098 31.6696L71.4008 31.673C71.5235 31.6708 71.6386 31.65 71.7462 31.6108C71.8559 31.5715 71.9474 31.5104 72.0205 31.4275C72.0959 31.3425 72.1444 31.2345 72.1658 31.1035C72.1852 30.9923 72.1831 30.8952 72.1594 30.8122C72.1378 30.7272 72.0927 30.6607 72.0238 30.6126C71.9571 30.5647 71.8667 30.5374 71.7526 30.5309L70.7681 30.5276L70.9036 29.7749L71.9754 29.7782L72.1691 30.076C72.3864 30.0782 72.579 30.1174 72.7469 30.1937C72.9147 30.2701 73.0438 30.3858 73.1342 30.5406C73.2268 30.6934 73.2655 30.8854 73.2505 31.1166C73.229 31.4722 73.1278 31.7559 72.947 31.9675C72.7663 32.1769 72.536 32.3275 72.2562 32.4191C71.9764 32.5108 71.6795 32.5555 71.3653 32.5533ZM77.7911 30.9432L78.8725 30.9301C78.8424 31.2922 78.7272 31.601 78.5271 31.8562C78.3291 32.1093 78.0784 32.3013 77.7749 32.4322C77.4737 32.5631 77.1519 32.6253 76.8097 32.6188C76.4848 32.6122 76.2115 32.5446 75.9899 32.4158C75.7682 32.2849 75.5938 32.1104 75.4669 31.8923C75.3399 31.6718 75.2559 31.4253 75.2151 31.1526C75.1742 30.8777 75.1721 30.5941 75.2086 30.3017L75.2441 30.0432C75.2872 29.74 75.3668 29.4487 75.483 29.1695C75.5992 28.8881 75.7509 28.6371 75.9382 28.4168C76.1275 28.1964 76.3524 28.0241 76.6128 27.8997C76.8733 27.7732 77.168 27.7132 77.4974 27.7198C77.8481 27.7263 78.1462 27.8005 78.3915 27.9423C78.639 28.0841 78.8306 28.2827 78.9661 28.5379C79.1039 28.7932 79.1813 29.0942 79.1985 29.4411L78.0978 29.4378C78.1042 29.2698 78.088 29.1258 78.0493 29.0058C78.0106 28.8859 77.9417 28.7932 77.8428 28.7277C77.7459 28.6601 77.6092 28.623 77.4328 28.6164C77.2412 28.6098 77.0809 28.6502 76.9518 28.7375C76.8248 28.8226 76.7215 28.9371 76.6419 29.0811C76.5623 29.2251 76.5009 29.3811 76.4579 29.5491C76.417 29.7171 76.3858 29.8796 76.3643 30.0367L76.332 30.3051C76.3169 30.4338 76.3029 30.5788 76.29 30.7402C76.2772 30.8996 76.2825 31.0533 76.3061 31.2017C76.3299 31.3478 76.3847 31.4701 76.4708 31.5682C76.5569 31.6664 76.6914 31.7188 76.8743 31.7254C77.0465 31.7297 77.196 31.7024 77.323 31.6435C77.45 31.5824 77.5522 31.493 77.6297 31.3751C77.7093 31.2552 77.7631 31.1112 77.7911 30.9432ZM81.2922 27.7884L83.0322 27.7918C83.3185 27.7961 83.5821 27.8485 83.8231 27.9488C84.0641 28.0492 84.2535 28.203 84.3913 28.4103C84.529 28.6153 84.587 28.8782 84.5655 29.199C84.5461 29.4629 84.4881 29.6854 84.3913 29.8665C84.2944 30.0454 84.1631 30.1981 83.9974 30.3247C83.8317 30.4512 83.6369 30.5636 83.4131 30.6617L83.0128 30.8712H81.4504L81.5989 29.9843L82.6609 29.9909C82.803 29.9888 82.9289 29.9603 83.0386 29.9058C83.1505 29.8513 83.2421 29.7738 83.3131 29.6735C83.3841 29.5731 83.4292 29.451 83.4486 29.307C83.4659 29.1891 83.4615 29.0844 83.4358 28.9927C83.4099 28.899 83.3604 28.8248 83.2872 28.7702C83.2141 28.7157 83.1172 28.6852 82.9967 28.6786L82.2477 28.6753L81.5828 32.5533H80.4788L81.2922 27.7884ZM82.9999 32.5533L82.3511 30.4457L83.4713 30.4392L84.1782 32.4976V32.5533H82.9999ZM87.9731 27.7884L87.1596 32.5533H86.0556L86.8723 27.7884H87.9731ZM91.4969 30.5276H90.2734L90.3993 29.7749L91.2967 29.7782C91.428 29.7782 91.5539 29.7629 91.6744 29.7323C91.7971 29.6996 91.9004 29.6429 91.9843 29.5622C92.0704 29.4815 92.1253 29.3669 92.1489 29.2186C92.1683 29.0833 92.1575 28.9775 92.1167 28.9011C92.0758 28.8226 92.0102 28.767 91.9198 28.7342C91.8315 28.6994 91.7261 28.6808 91.6034 28.6786L91.0127 28.6753L90.3477 32.5533H89.2437L90.0572 27.7884L91.6389 27.7918C91.8434 27.7939 92.0457 27.8169 92.2458 27.8604C92.4459 27.9041 92.6257 27.975 92.7849 28.0732C92.9441 28.1692 93.069 28.3001 93.1594 28.4659C93.2498 28.6296 93.2874 28.8345 93.2723 29.0811C93.2572 29.3495 93.183 29.5677 93.0495 29.7356C92.9184 29.9014 92.7483 30.0247 92.5395 30.1055C92.3308 30.184 92.1048 30.2265 91.8616 30.2331L91.4969 30.5276ZM91.1224 32.5533H89.6375L90.1669 31.6696L91.1579 31.673C91.2806 31.6708 91.3957 31.65 91.5033 31.6108C91.6131 31.5715 91.7046 31.5104 91.7777 31.4275C91.853 31.3425 91.9015 31.2345 91.923 31.1035C91.9424 30.9923 91.9402 30.8952 91.9165 30.8122C91.8951 30.7272 91.8498 30.6607 91.781 30.6126C91.7142 30.5647 91.6238 30.5374 91.5098 30.5309L90.5252 30.5276L90.6608 29.7749L91.7325 29.7782L91.9262 30.076C92.1435 30.0782 92.3362 30.1174 92.504 30.1937C92.6719 30.2701 92.8011 30.3858 92.8914 30.5406C92.9839 30.6934 93.0227 30.8854 93.0076 31.1166C92.9861 31.4722 92.8849 31.7559 92.7042 31.9675C92.5234 32.1769 92.2931 32.3275 92.0134 32.4191C91.7336 32.5108 91.4366 32.5555 91.1224 32.5533ZM98.0003 31.6696L97.8483 32.5533H95.4116L95.5627 31.6696H98.0003ZM96.6252 27.7884L95.8083 32.5533H94.7042L95.5174 27.7884H96.6252ZM98.0258 29.68L97.8804 30.5341H95.7563L95.9055 29.68H98.0258ZM98.6718 27.7884L98.5198 28.6753H96.0727L96.2276 27.7884H98.6718ZM103.563 30.0465L104.638 29.4117C104.729 29.3549 104.809 29.2873 104.88 29.2087C104.953 29.128 104.996 29.0309 105.009 28.9175C105.019 28.8258 105.001 28.7451 104.954 28.6753C104.909 28.6055 104.838 28.5695 104.741 28.5673C104.657 28.5651 104.583 28.5859 104.518 28.6296C104.456 28.6709 104.405 28.7266 104.363 28.7964C104.322 28.864 104.296 28.936 104.283 29.0124C104.266 29.1302 104.279 29.2459 104.324 29.3593C104.37 29.4728 104.428 29.5818 104.499 29.6866C104.57 29.7891 104.636 29.8851 104.695 29.9745L106.455 32.5533H105.328L103.902 30.4785C103.811 30.3389 103.725 30.1905 103.641 30.0335C103.556 29.8763 103.489 29.7138 103.44 29.5458C103.39 29.3778 103.372 29.2066 103.386 29.0321C103.403 28.7724 103.474 28.5433 103.602 28.3448C103.73 28.1441 103.898 27.9881 104.105 27.8768C104.312 27.7656 104.544 27.7132 104.802 27.7198C105.009 27.7241 105.196 27.7743 105.364 27.8703C105.532 27.9662 105.664 28.0983 105.761 28.2663C105.858 28.432 105.901 28.623 105.89 28.839C105.882 28.9961 105.843 29.1411 105.774 29.2742C105.707 29.4073 105.62 29.5284 105.512 29.6375C105.407 29.7443 105.293 29.8393 105.171 29.9222L103.996 30.6846C103.948 30.7283 103.905 30.7807 103.866 30.8417C103.829 30.9006 103.799 30.9639 103.776 31.0315C103.754 31.097 103.74 31.1613 103.73 31.2246C103.72 31.314 103.726 31.4002 103.747 31.4831C103.771 31.5638 103.811 31.6315 103.869 31.686C103.93 31.7384 104.008 31.7679 104.105 31.7744C104.316 31.7853 104.51 31.745 104.69 31.6534C104.87 31.5617 105.028 31.4362 105.164 31.277C105.302 31.1156 105.413 30.9388 105.499 30.7469C105.586 30.5527 105.64 30.3607 105.661 30.1709L106.539 30.1676C106.524 30.4097 106.48 30.6508 106.407 30.8909C106.333 31.1308 106.227 31.3533 106.088 31.5584C105.95 31.7614 105.775 31.9315 105.564 32.0689C105.543 32.082 105.52 32.0951 105.496 32.1082C105.475 32.1191 105.453 32.1322 105.432 32.1475C105.2 32.2893 104.968 32.405 104.738 32.4944C104.508 32.5838 104.253 32.6253 103.976 32.6188C103.72 32.6144 103.487 32.5598 103.275 32.4551C103.066 32.3482 102.903 32.1977 102.785 32.0035C102.667 31.8071 102.615 31.5715 102.63 31.2966C102.64 31.1047 102.691 30.9323 102.782 30.7796C102.875 30.6269 102.989 30.4905 103.127 30.3705C103.267 30.2505 103.412 30.1425 103.563 30.0465ZM114.019 30.9432L115.1 30.9301C115.07 31.2922 114.955 31.601 114.755 31.8562C114.557 32.1093 114.306 32.3013 114.003 32.4322C113.702 32.5631 113.38 32.6253 113.038 32.6188C112.713 32.6122 112.44 32.5446 112.218 32.4158C111.996 32.2849 111.822 32.1104 111.695 31.8923C111.568 31.6718 111.484 31.4253 111.444 31.1526C111.402 30.8777 111.4 30.5941 111.437 30.3017L111.472 30.0432C111.515 29.74 111.595 29.4487 111.711 29.1695C111.827 28.8881 111.979 28.6371 112.166 28.4168C112.356 28.1964 112.581 28.0241 112.841 27.8997C113.101 27.7732 113.397 27.7132 113.725 27.7198C114.077 27.7263 114.374 27.8005 114.62 27.9423C114.867 28.0841 115.059 28.2827 115.194 28.5379C115.332 28.7932 115.409 29.0942 115.426 29.4411L114.326 29.4378C114.333 29.2698 114.317 29.1258 114.278 29.0058C114.239 28.8859 114.17 28.7932 114.071 28.7277C113.974 28.6601 113.838 28.623 113.661 28.6164C113.469 28.6098 113.309 28.6502 113.18 28.7375C113.053 28.8226 112.95 28.9371 112.87 29.0811C112.79 29.2251 112.729 29.3811 112.686 29.5491C112.645 29.7171 112.614 29.8796 112.592 30.0367L112.56 30.3051C112.545 30.4338 112.531 30.5788 112.518 30.7402C112.505 30.8996 112.511 31.0533 112.534 31.2017C112.558 31.3478 112.613 31.4701 112.699 31.5682C112.785 31.6664 112.92 31.7188 113.102 31.7254C113.275 31.7297 113.424 31.7024 113.552 31.6435C113.678 31.5824 113.78 31.493 113.858 31.3751C113.938 31.2552 113.992 31.1112 114.019 30.9432ZM120.277 29.68L120.126 30.5636H117.779L117.93 29.68H120.277ZM118.628 27.7884L117.811 32.5533H116.707L117.52 27.7884H118.628ZM121.339 27.7884L120.522 32.5533H119.421L120.235 27.7884H121.339ZM124.524 27.7884L123.711 32.5533H122.607L123.423 27.7884H124.524ZM128.965 31.6696L128.813 32.5533H126.502L126.653 31.6696H128.965ZM127.715 27.7884L126.898 32.5533H125.794L126.608 27.7884H127.715ZM133.766 31.6696L133.615 32.5533H131.303L131.455 31.6696H133.766ZM132.517 27.7884L131.701 32.5533H130.597L131.41 27.7884H132.517Z" fill="#27AC5B"/>
<path d="M121.22 15.6857C120.977 15.9964 120.581 16.1517 120.031 16.1517H118.653L119.16 13.6454H120.555C121.241 13.6454 121.584 14.0048 121.584 14.7219C121.584 15.0543 121.462 15.3754 121.22 15.6857ZM123.605 16.5694C124.022 15.9267 124.23 15.2629 124.23 14.5772C124.23 13.6136 123.969 12.821 123.447 12.2001C122.923 11.5791 122.107 11.2683 120.999 11.2683H116.989L116.022 16.1517H113.972L115.594 18.3084L114.723 22.7059H117.353L118.225 18.3685H119.223L120.412 22.7059H123.295L121.79 18.0313C122.582 17.6994 123.188 17.2121 123.605 16.5694ZM95.2332 16.987C95.032 18.0044 94.9319 18.754 94.9319 19.2358C94.9319 19.6214 95.0348 19.9212 95.2417 20.1355C95.4466 20.3497 95.7243 20.4565 96.0728 20.4565C96.7915 20.4565 97.3195 20.023 97.6576 19.1557H100.367C99.9658 20.3765 99.3746 21.2899 98.5926 21.8947C97.8106 22.4998 96.902 22.8024 95.8669 22.8024C94.7364 22.8024 93.8573 22.4755 93.2289 21.8219C92.5999 21.1691 92.2858 20.3822 92.2858 19.4609C92.2858 18.8289 92.3861 18.0044 92.5867 16.987C92.7455 16.1628 92.8775 15.5411 92.9828 15.1234C93.0888 14.7059 93.2523 14.251 93.4743 13.758C93.6964 13.2655 93.9655 12.8479 94.2824 12.5051C95.1066 11.6163 96.1993 11.1719 97.5631 11.1719C98.7135 11.1719 99.5908 11.5145 100.192 12.2001C100.795 12.8855 101.096 13.758 101.096 14.8184H98.466C98.4443 13.9512 98.0797 13.517 97.3723 13.517C96.9388 13.517 96.5582 13.6832 96.2315 14.0151C95.883 14.3688 95.5505 15.3594 95.2332 16.987ZM86.5183 16.987C86.2011 18.5826 85.8789 19.563 85.5519 19.927C85.2346 20.2801 84.8599 20.4565 84.4266 20.4565C84.0991 20.4565 83.8324 20.3497 83.6266 20.1355C83.4203 19.9212 83.3176 19.6214 83.3176 19.2358C83.3176 18.754 83.4178 18.0044 83.6185 16.987C83.9357 15.3913 84.2575 14.4116 84.5849 14.0471C84.9022 13.694 85.277 13.517 85.7102 13.517C86.0377 13.517 86.3046 13.6244 86.5102 13.8387C86.7166 14.0527 86.8195 14.3528 86.8195 14.7378C86.8195 15.22 86.7191 15.9695 86.5183 16.987ZM85.916 11.1719C84.5744 11.1719 83.4917 11.6163 82.6677 12.5051C82.3511 12.8479 82.0817 13.2655 81.8597 13.758C81.6376 14.251 81.4742 14.7059 81.3682 15.1234C81.2628 15.5411 81.1309 16.1628 80.9721 16.987C80.7715 18.0044 80.6712 18.8289 80.6712 19.4609C80.6712 20.3822 80.9827 21.1691 81.6061 21.8219C82.2292 22.4755 83.1006 22.8024 84.2208 22.8024C85.5621 22.8024 86.6452 22.3578 87.4691 21.4688C87.7859 21.1261 88.0551 20.7084 88.2772 20.2159C88.4993 19.7236 88.6627 19.2683 88.7686 18.8507C88.874 18.4331 89.006 17.8119 89.1647 16.987C89.3649 15.9695 89.4657 15.1451 89.4657 14.5134C89.4657 13.5924 89.1542 12.8052 88.5307 12.1516C87.9076 11.4985 87.0359 11.1719 85.916 11.1719ZM76.587 11.2683H78.6428L78.1837 13.6136H76.1224L76.1214 13.6182H73.5397L73.1129 15.7663L77.8033 15.7398L77.3435 18.085L72.6531 18.1114L72.2096 20.3607H76.9472L76.4878 22.7059H69.1038L70.0171 18.0962L68.4296 15.7646H70.4791L70.9042 13.6182L71.3688 11.273L71.3698 11.2683H73.9515H76.587ZM61.5614 20.3607H66.1408L65.6814 22.7059H58.4556L60.2573 13.6123L58.6615 11.2683H60.7216H60.7226H63.3518L61.5614 20.3607ZM106.641 18.7381L108.353 15.3644L108.702 18.7381H106.641ZM108.036 11.2683L104.018 18.7421L104.019 18.7381H101.959L103.161 20.3371L101.888 22.7059H104.693L105.564 20.9067H108.908L109.066 22.7059H111.744L110.081 11.2683H108.036Z" fill="#FAFAFA"/>
<path d="M1.9153 25.2122C2.17261 24.9932 2.4339 24.7797 2.70061 24.5737C2.83709 24.4679 2.97421 24.3636 3.11299 24.2615C3.39035 24.057 3.67292 23.8612 3.95945 23.6705C4.08488 23.5869 4.20843 23.5002 4.33552 23.4194C4.74916 23.156 5.16884 22.9033 5.59896 22.6689C5.60772 22.6641 5.6167 22.66 5.62546 22.6554C6.04598 22.4269 6.47589 22.2151 6.91143 22.0146C7.05376 21.9492 7.19902 21.8896 7.34281 21.8269C7.65272 21.6922 7.96492 21.5633 8.28151 21.4429C8.44785 21.3796 8.61459 21.3187 8.78279 21.2595C8.90718 21.2157 9.02864 21.1656 9.15386 21.1239C9.18391 20.7012 9.23316 20.2977 9.30182 19.9051C9.84989 16.7758 11.5111 13.9879 13.9451 12.0376C13.6263 11.7779 13.3035 11.524 12.9702 11.2859C12.9583 11.2775 12.9454 11.2699 12.9333 11.2612C12.5846 11.0133 12.2275 10.7791 11.8639 10.5556C11.745 10.4823 11.6223 10.4156 11.5016 10.3452C11.2404 10.1922 10.9777 10.0426 10.7094 9.90234C10.5648 9.82642 10.4177 9.75547 10.271 9.68337C10.0187 9.55937 9.76404 9.43985 9.5063 9.32708C9.35128 9.25917 9.19538 9.19336 9.03865 9.12968C8.77841 9.0239 8.51546 8.9251 8.25063 8.83074C8.09557 8.77552 7.94093 8.71924 7.7844 8.66784C7.49661 8.57347 7.20507 8.4897 6.91248 8.40909C6.77578 8.37143 6.64076 8.32911 6.50323 8.29441C6.07248 8.18588 5.63778 8.08877 5.19784 8.00944C5.15152 8.0014 5.10498 7.9961 5.05886 7.98828C2.63424 10.9375 1.00789 14.4824 0.342155 18.2859C-0.145355 21.0722 -0.111545 23.8493 0.441285 26.5724C0.449424 26.5641 0.45819 26.5569 0.466329 26.5487C0.518085 26.4958 0.573389 26.4473 0.625771 26.395C0.925248 26.0966 1.23161 25.8069 1.54611 25.5274C1.66715 25.42 1.79195 25.3171 1.9153 25.2122Z" fill="#27AC5B"/>
<path d="M27.599 32.197L27.5718 32.1973L27.582 32.2151L27.599 32.197Z" fill="#27AC5B"/>
<path d="M7.51458 5.86538C7.8965 5.96904 8.27611 6.07864 8.65051 6.20219C8.8256 6.26037 8.99674 6.32723 9.16974 6.38964C9.47279 6.49838 9.77472 6.60946 10.0723 6.73174C10.26 6.80854 10.4442 6.89232 10.6295 6.97442C10.9067 7.09754 11.1821 7.22406 11.4539 7.35841C11.6413 7.45149 11.8268 7.54754 12.0117 7.64614C12.2764 7.78662 12.5372 7.93281 12.796 8.08451C12.9757 8.18966 13.1552 8.29565 13.3322 8.4063C13.5932 8.56963 13.8493 8.741 14.1037 8.91554C14.2671 9.02789 14.432 9.13727 14.5926 9.25405C14.8673 9.45356 15.1344 9.6643 15.4005 9.87714C15.5316 9.98207 15.6662 10.0817 15.7952 10.19C15.8035 10.197 15.8116 10.2038 15.82 10.2108C16.5757 10.8467 17.3818 11.4372 18.3064 11.7736C20.9374 12.731 23.8689 12.5411 26.377 11.2366C27.1461 7.60658 26.8967 3.85019 25.624 0.342405C25.6224 0.340924 25.6211 0.339866 25.6195 0.338384C18.8803 -0.85803 12.1413 1.15736 7.15918 5.76256C7.17086 5.76573 7.18193 5.76954 7.19361 5.77271C7.30172 5.80021 7.4069 5.83596 7.51458 5.86538Z" fill="#27AC5B"/>
<path d="M14.9057 42.9209C14.7965 42.497 14.6972 42.0718 14.6133 41.6441C14.579 41.4702 14.5542 41.2952 14.5241 41.1206C14.4674 40.7915 14.4134 40.4618 14.3714 40.1309C14.3461 39.9319 14.3282 39.7319 14.3083 39.5322C14.2774 39.2221 14.2508 38.9121 14.2328 38.6015C14.221 38.3946 14.213 38.1882 14.2069 37.9814C14.1977 37.6734 14.1953 37.3653 14.1986 37.0573C14.2011 36.852 14.2043 36.6471 14.2122 36.4423C14.2245 36.1253 14.2466 35.8091 14.2724 35.4928C14.2881 35.2986 14.3012 35.1043 14.3223 34.9103C14.3593 34.5655 14.4096 34.2218 14.463 33.8785C14.4881 33.715 14.5074 33.551 14.5365 33.3877C14.539 33.3729 14.5417 33.3578 14.5444 33.343C14.7203 32.3658 14.8295 31.3653 14.6596 30.387C14.1763 27.6028 12.5518 25.1122 10.165 23.5544C6.70376 24.662 3.62802 26.7121 1.25787 29.531C1.25746 29.5329 1.25725 29.5346 1.25684 29.5365C3.51595 35.9933 8.61477 41.0256 14.9637 43.1672C14.9614 43.1585 14.9597 43.1496 14.9576 43.1407C14.938 43.0677 14.9244 42.9939 14.9057 42.9209Z" fill="#27AC5B"/>
<path d="M41.6892 19.0166C41.4412 19.2293 41.1921 19.4393 40.9358 19.6397C40.7772 19.7637 40.6149 19.8818 40.4529 20.0012C40.206 20.1836 39.957 20.3622 39.7028 20.5338C39.5317 20.6493 39.3586 20.7615 39.1844 20.8718C38.928 21.0348 38.6679 21.1913 38.4049 21.3435C38.228 21.4456 38.0508 21.5472 37.8709 21.6441C37.5963 21.7926 37.317 21.9322 37.0359 22.0687C36.8613 22.1536 36.688 22.2407 36.5109 22.3211C36.1999 22.4623 35.8829 22.5908 35.565 22.7169C35.4112 22.7781 35.2605 22.8448 35.1055 22.9021C35.1011 22.9037 35.0967 22.9055 35.0923 22.9069C33.9376 23.3345 32.8311 23.9159 31.9538 24.7889C30.1365 26.5971 29.0364 29.0578 28.9219 31.6798C31.6134 34.1559 34.9156 35.817 38.5174 36.471C38.5193 36.4703 38.521 36.4697 38.5229 36.469C41.0184 33.4889 42.6882 29.8927 43.3655 26.0242C43.8552 23.2245 43.8061 20.3457 43.2312 17.5786C43.2225 17.5877 43.2131 17.5958 43.2043 17.6048C43.1321 17.6795 43.0544 17.7481 42.9813 17.8217C42.6947 18.1096 42.4042 18.3921 42.1037 18.6626C41.9682 18.7845 41.8273 18.8985 41.6892 19.0166Z" fill="#27AC5B"/>
<path d="M28.5723 1.08765C28.5752 1.09865 28.5773 1.10986 28.5804 1.12086C28.6015 1.19703 28.6171 1.27424 28.6374 1.35062C28.7453 1.7564 28.8428 2.16388 28.9277 2.57369C28.9618 2.73723 28.9894 2.90184 29.0197 3.06601C29.0805 3.39563 29.135 3.7261 29.1809 4.05763C29.2052 4.23492 29.2282 4.41158 29.2485 4.58909C29.2871 4.92759 29.3158 5.26653 29.3391 5.6063C29.3496 5.76476 29.3641 5.92259 29.3714 6.08085C29.3946 6.5721 29.4054 7.064 29.396 7.55611C29.3956 7.576 29.3935 7.59609 29.3931 7.61619C29.3827 8.09053 29.3545 8.56464 29.314 9.03835C29.3002 9.19681 29.2802 9.35464 29.2633 9.51311C29.2268 9.85479 29.184 10.196 29.1318 10.5367C29.1051 10.7097 29.0761 10.8824 29.0454 11.0548C29.0214 11.1904 29.0043 11.3263 28.9778 11.4617C31.9674 13.5088 33.9599 16.7564 34.4646 20.3509C34.5172 20.3303 34.5681 20.3065 34.6205 20.2857C35.2672 20.0289 35.8977 19.7371 36.5104 19.4128C36.5849 19.3734 36.6617 19.3387 36.7354 19.2983C37.36 18.9572 37.9613 18.5749 38.5448 18.166C38.6543 18.0894 38.764 18.0126 38.8722 17.9332C39.4409 17.5171 39.9896 17.0714 40.5123 16.5926C40.5985 16.5138 40.6807 16.4305 40.7655 16.3503C41.3047 15.8385 41.8252 15.303 42.3085 14.7266C42.3136 14.7204 42.3184 14.7147 42.3236 14.7086C42.3491 14.6779 42.3724 14.6461 42.3977 14.6155C40.0895 8.17367 34.9464 3.1792 28.5723 1.08765Z" fill="#27AC5B"/>
<path d="M36.1712 38.6075C35.749 38.4914 35.3303 38.3651 34.9173 38.2244C34.7556 38.1694 34.5974 38.1054 34.4373 38.0469C34.123 37.9314 33.81 37.8133 33.5016 37.6834C33.3223 37.6081 33.1459 37.5262 32.969 37.4462C32.6854 37.3176 32.4039 37.1855 32.1258 37.0451C31.9445 36.9533 31.7652 36.8581 31.5864 36.7614C31.3182 36.6164 31.0538 36.4651 30.7921 36.3091C30.6164 36.2043 30.4417 36.0992 30.2691 35.9894C30.0066 35.8224 29.7495 35.647 29.4938 35.4687C29.3333 35.3566 29.1711 35.2468 29.0132 35.1304C28.7394 34.9282 28.4733 34.7147 28.2085 34.4993C28.0789 34.3939 27.9457 34.2939 27.8184 34.1854C27.6642 34.0539 27.516 33.9141 27.3649 33.7781C25.635 34.6223 23.751 35.0838 21.8414 35.0838C21.102 35.0838 20.361 35.0179 19.6257 34.8865C18.7383 34.7263 17.8739 34.4572 17.0342 34.1053C16.5011 37.3536 16.7778 40.6811 17.8643 43.8197C17.8783 43.8597 17.8945 43.8984 17.9087 43.9384C17.9513 43.9466 17.9937 43.9545 18.0363 43.9621C24.712 45.1632 31.4181 43.1985 36.4018 38.6763C36.3905 38.6731 36.3792 38.6689 36.368 38.6659C36.3016 38.6486 36.2375 38.6255 36.1712 38.6075Z" fill="#27AC5B"/>
<path d="M22.3228 26.7139C22.3233 26.6938 22.3236 26.6739 22.3233 26.6543C22.2917 25.0313 22.4136 24.7766 23.4671 24.1997C23.701 24.0717 24.0393 23.905 24.4075 23.6509H19.3306C19.9153 24.0435 20.3532 24.363 20.8156 24.6406C21.213 24.8792 21.3812 25.1881 21.3753 25.6652C21.3526 27.5891 21.7026 27.2276 19.8456 28.237C19.2059 28.5844 18.5784 28.9606 17.916 29.2546C18.2245 29.5155 18.7779 29.7218 19.0286 29.579C19.8799 29.0944 20.7749 28.6892 21.6554 28.2579C21.7214 28.2256 21.8101 28.2415 21.9568 28.2296C22.0626 28.2628 22.2402 28.2922 22.3921 28.3716C23.1412 28.7625 23.8795 29.1749 24.6264 29.5701C25.0168 29.7763 25.8913 29.2961 25.8012 29.25C24.837 28.7547 23.8887 28.2273 22.9304 27.7201C22.5227 27.5046 22.3112 27.1823 22.3228 26.7139Z" fill="#FAFAFA"/>
<path d="M18.4491 19.7298C18.7456 20.2013 18.9645 20.7233 19.2147 21.2248C19.3379 20.3975 19.3656 19.606 19.3178 18.8197C19.3061 18.6264 19.0722 18.3202 18.8971 18.2843C17.5915 18.0182 16.2753 17.8069 14.9623 17.5786C14.9436 17.6239 14.925 17.6687 14.9062 17.7135C15.1252 17.9638 15.3268 18.2325 15.5658 18.4613C16.1964 19.0647 16.8661 19.5432 17.8284 19.3293C18.0036 19.2901 18.3253 19.533 18.4491 19.7298Z" fill="#FAFAFA"/>
<path d="M24.8341 18.2843C24.6588 18.3202 24.4251 18.6264 24.4132 18.8197C24.3654 19.606 24.3932 20.3975 24.5165 21.2248C24.7666 20.7233 24.9854 20.2013 25.2823 19.7298C25.4058 19.533 25.7276 19.2901 25.9029 19.3293C26.8652 19.5432 27.5349 19.0649 28.1654 18.4615C28.4043 18.2327 28.6061 17.9639 28.8251 17.7135C28.8061 17.6687 28.7877 17.6239 28.7689 17.5786C27.4558 17.8069 26.1395 18.0182 24.8341 18.2843Z" fill="#FAFAFA"/>
</g>
<defs>
<clipPath id="clip0_575_472">
<rect width="136" height="45" fill="white"/>
</clipPath>
</defs>
</svg>
