<svg width="41" height="37" viewBox="0 0 41 37" fill="none" xmlns="http://www.w3.org/2000/svg">
<g filter="url(#filter0_b_575_292)">
<rect width="41" height="37" rx="15" fill="#0866FF" fill-opacity="0.2"/>
<path d="M25.6547 16.3427H17.0786V13.3811C17.0788 12.5935 17.4045 11.8881 17.9344 11.3713C18.4655 10.8558 19.1909 10.5396 19.9998 10.539C20.8091 10.5396 21.5345 10.856 22.0659 11.3713C22.5955 11.8881 22.9209 12.5935 22.9214 13.3811V14.5624H24.5034V13.3811C24.504 12.1736 23.9981 11.0736 23.1844 10.2831C22.3718 9.49155 21.2411 8.99944 19.9998 9C18.7589 8.99944 17.6282 9.49155 16.8156 10.2831C16.0018 11.0736 15.4963 12.1736 15.4965 13.3811V16.3427H14.3453C13.6022 16.3427 13 16.9288 13 17.6514V21.8038C13 25.2258 16.1342 28 20.0001 28C23.8661 28 27 25.2258 27 21.8038V17.6515C27 16.9288 26.3978 16.3427 25.6547 16.3427ZM20.5101 22.1968L20.9205 23.9028H19.0795L19.4899 22.1965C18.9854 21.9997 18.6288 21.5203 18.6288 20.9592C18.6288 20.2225 19.2429 19.6255 19.9999 19.6255C20.7571 19.6255 21.3712 20.2225 21.3712 20.9592C21.3712 21.5203 21.0143 21.9997 20.5101 22.1968Z" fill="#0866FF"/>
</g>
<defs>
<filter id="filter0_b_575_292" x="-30" y="-30" width="101" height="97" filterUnits="userSpaceOnUse" color-interpolation-filters="sRGB">
<feFlood flood-opacity="0" result="BackgroundImageFix"/>
<feGaussianBlur in="BackgroundImageFix" stdDeviation="15"/>
<feComposite in2="SourceAlpha" operator="in" result="effect1_backgroundBlur_575_292"/>
<feBlend mode="normal" in="SourceGraphic" in2="effect1_backgroundBlur_575_292" result="shape"/>
</filter>
</defs>
</svg>
