<svg width="41" height="37" viewBox="0 0 41 37" fill="none" xmlns="http://www.w3.org/2000/svg">
<g filter="url(#filter0_b_923_693)">
<rect width="41" height="37" rx="15" fill="#27AC5B" fill-opacity="0.2"/>
<path d="M28.0556 13.7778H20.7918C20.7042 13.7778 20.6183 13.7534 20.5438 13.7074C20.4692 13.6613 20.4089 13.5954 20.3697 13.5171L18.8718 10.5223C18.7934 10.3654 18.6729 10.2335 18.5238 10.1412C18.3747 10.049 18.2028 10.0001 18.0274 10H12.9444C12.694 10 12.4537 10.0995 12.2766 10.2766C12.0995 10.4537 12 10.694 12 10.9444V26.0556C12 26.306 12.0995 26.5463 12.2766 26.7234C12.4537 26.9005 12.694 27 12.9444 27H28.0556C28.306 27 28.5463 26.9005 28.7234 26.7234C28.9005 26.5463 29 26.306 29 26.0556V14.7222C29 14.4717 28.9005 14.2315 28.7234 14.0544C28.5463 13.8773 28.306 13.7778 28.0556 13.7778ZM23.3333 21.3333H21.4444V23.2222C21.4444 23.4727 21.3449 23.7129 21.1678 23.89C20.9907 24.0672 20.7505 24.1667 20.5 24.1667C20.2495 24.1667 20.0093 24.0672 19.8322 23.89C19.6551 23.7129 19.5556 23.4727 19.5556 23.2222V21.3333H17.6667C17.4162 21.3333 17.176 21.2338 16.9988 21.0567C16.8217 20.8796 16.7222 20.6394 16.7222 20.3889C16.7222 20.1384 16.8217 19.8982 16.9988 19.7211C17.176 19.5439 17.4162 19.4444 17.6667 19.4444H19.5556V17.5556C19.5556 17.3051 19.6551 17.0649 19.8322 16.8877C20.0093 16.7106 20.2495 16.6111 20.5 16.6111C20.7505 16.6111 20.9907 16.7106 21.1678 16.8877C21.3449 17.0649 21.4444 17.3051 21.4444 17.5556V19.4444H23.3333C23.5838 19.4444 23.824 19.5439 24.0012 19.7211C24.1783 19.8982 24.2778 20.1384 24.2778 20.3889C24.2778 20.6394 24.1783 20.8796 24.0012 21.0567C23.824 21.2338 23.5838 21.3333 23.3333 21.3333Z" fill="#27AC5B"/>
</g>
<defs>
<filter id="filter0_b_923_693" x="-30" y="-30" width="101" height="97" filterUnits="userSpaceOnUse" color-interpolation-filters="sRGB">
<feFlood flood-opacity="0" result="BackgroundImageFix"/>
<feGaussianBlur in="BackgroundImageFix" stdDeviation="15"/>
<feComposite in2="SourceAlpha" operator="in" result="effect1_backgroundBlur_923_693"/>
<feBlend mode="normal" in="SourceGraphic" in2="effect1_backgroundBlur_923_693" result="shape"/>
</filter>
</defs>
</svg>
