<svg width="41" height="37" viewBox="0 0 41 37" fill="none" xmlns="http://www.w3.org/2000/svg">
<g filter="url(#filter0_b_923_680)">
<rect width="41" height="37" rx="15" fill="#F24497" fill-opacity="0.2"/>
<g clip-path="url(#clip0_923_680)">
<path fill-rule="evenodd" clip-rule="evenodd" d="M10.9999 13.1429V23.8571C10.9999 25.0406 11.9593 26 13.1427 26H28.1427C29.3262 26 30.2856 25.0406 30.2856 23.8571V13.1429C30.2856 11.9594 29.3262 11 28.1427 11H13.1427C11.9593 11 10.9999 11.9594 10.9999 13.1429ZM14.2866 14.672C14.2866 14.3959 14.5105 14.172 14.7866 14.172H23.737C24.0132 14.172 24.237 14.3959 24.237 14.672C24.237 14.9481 24.0132 15.172 23.737 15.172H14.7866C14.5105 15.172 14.2866 14.9481 14.2866 14.672ZM14.7866 17.6145C14.5105 17.6145 14.2866 17.8383 14.2866 18.1145C14.2866 18.3906 14.5105 18.6145 14.7866 18.6145H22.36C22.6362 18.6145 22.86 18.3906 22.86 18.1145C22.86 17.8383 22.6362 17.6145 22.36 17.6145H14.7866ZM24.8822 20.2902C24.7605 20.5943 24.565 20.8634 24.3134 21.0731C24.3937 21.3907 24.3937 21.7232 24.3134 22.0408C24.565 22.2505 24.7605 22.5195 24.8822 22.8237C25.209 22.8454 25.5253 22.9482 25.8025 23.1227C26.0797 22.9482 26.396 22.8454 26.7228 22.8237C26.8445 22.5195 27.04 22.2505 27.2916 22.0408C27.2113 21.7232 27.2113 21.3907 27.2916 21.0731C27.04 20.8634 26.8445 20.5943 26.7228 20.2902C26.396 20.2685 26.0797 20.1657 25.8025 19.9912C25.5253 20.1657 25.209 20.2685 24.8822 20.2902ZM26.3281 19.1404C26.0079 18.9348 25.5972 18.9348 25.2769 19.1404C25.1361 19.2308 24.9744 19.2833 24.8073 19.293C24.4274 19.3149 24.0951 19.5563 23.9569 19.9109C23.8961 20.0667 23.7961 20.2043 23.6666 20.3103C23.3722 20.5513 23.2452 20.942 23.3418 21.3101C23.3842 21.4719 23.3842 21.642 23.3418 21.8038C23.2452 22.1719 23.3722 22.5625 23.6666 22.8036C23.7961 22.9096 23.8961 23.0472 23.9569 23.203C24.0951 23.5576 24.4274 23.799 24.8073 23.8209C24.9744 23.8306 25.1361 23.8831 25.2769 23.9735C25.5972 24.1791 26.0079 24.1791 26.3281 23.9735C26.4689 23.8831 26.6307 23.8306 26.7977 23.8209C27.1776 23.799 27.5099 23.5576 27.6482 23.203C27.709 23.0472 27.8089 22.9096 27.9384 22.8036C28.2329 22.5625 28.3598 22.1719 28.2632 21.8038C28.2208 21.642 28.2208 21.4719 28.2632 21.3101C28.3598 20.942 28.2329 20.5513 27.9384 20.3103C27.8089 20.2043 27.709 20.0667 27.6482 19.9109C27.5099 19.5563 27.1776 19.3149 26.7977 19.293C26.6307 19.2833 26.4689 19.2308 26.3281 19.1404ZM14.7866 21.0569C14.5105 21.0569 14.2866 21.2808 14.2866 21.5569C14.2866 21.8331 14.5105 22.0569 14.7866 22.0569H20.9831C21.2592 22.0569 21.4831 21.8331 21.4831 21.5569C21.4831 21.2808 21.2592 21.0569 20.9831 21.0569H14.7866Z" fill="#F24497"/>
</g>
</g>
<defs>
<filter id="filter0_b_923_680" x="-30" y="-30" width="101" height="97" filterUnits="userSpaceOnUse" color-interpolation-filters="sRGB">
<feFlood flood-opacity="0" result="BackgroundImageFix"/>
<feGaussianBlur in="BackgroundImageFix" stdDeviation="15"/>
<feComposite in2="SourceAlpha" operator="in" result="effect1_backgroundBlur_923_680"/>
<feBlend mode="normal" in="SourceGraphic" in2="effect1_backgroundBlur_923_680" result="shape"/>
</filter>
<clipPath id="clip0_923_680">
<rect width="19" height="19" fill="white" transform="translate(11 9)"/>
</clipPath>
</defs>
</svg>
