<svg width="11" height="22" viewBox="0 0 11 22" fill="none" xmlns="http://www.w3.org/2000/svg">
<g id="Union">
<path d="M2.60259 11.7149V0.5H1.73506V11.7149C0.745103 11.9219 0 12.8234 0 13.9043C0 14.9851 0.745103 15.8866 1.73506 16.0936V21.5H2.60259V16.0936C3.59254 15.8866 4.33765 14.9851 4.33765 13.9043V14.3511H6.94023V13.4574H4.33765V13.9043C4.33765 12.8234 3.59254 11.9219 2.60259 11.7149Z" fill="#FAFAFA" fill-opacity="0.7"/>
<path fill-rule="evenodd" clip-rule="evenodd" d="M8.92098 9.88298V7.24227H9.66143C9.8433 7.24227 9.98732 7.25798 10.0935 7.28939C10.1997 7.31965 10.2951 7.37375 10.3799 7.45171C10.5482 7.60763 10.6323 7.81998 10.6323 8.08876C10.6323 8.35871 10.5397 8.57048 10.3544 8.72407C10.3013 8.76828 10.2466 8.80377 10.1901 8.83053C10.1347 8.85613 10.059 8.88173 9.96303 8.90733L10.656 9.88298H10.0698L9.3971 8.87068V9.88298H8.92098ZM9.3971 8.50241H9.62924C9.81336 8.50241 9.94665 8.47099 10.0291 8.40816C10.1116 8.34417 10.1528 8.24235 10.1528 8.10273C10.1528 7.96659 10.1093 7.8642 10.0223 7.79555C9.95117 7.73853 9.81336 7.71002 9.6089 7.71002H9.3971V8.50241Z" fill="#FAFAFA" fill-opacity="0.7"/>
<path d="M8.92098 12.604V15.2447H9.3971V13.3248L10.4697 15.2447H11V12.604H10.5256V14.5256L9.46319 12.604H8.92098Z" fill="#FAFAFA" fill-opacity="0.7"/>
<path fill-rule="evenodd" clip-rule="evenodd" d="M8.92098 20.6064V17.9657H9.50893C9.92801 17.9657 10.2398 18.0343 10.4442 18.1716C10.6148 18.2845 10.7458 18.4381 10.8373 18.6324C10.93 18.8256 10.9763 19.0449 10.9763 19.2904C10.9763 19.5627 10.9187 19.8029 10.8035 20.0112C10.6894 20.2183 10.5307 20.3713 10.3273 20.4702C10.2234 20.5191 10.1093 20.554 9.98506 20.575C9.86193 20.5959 9.70661 20.6064 9.5191 20.6064H8.92098ZM9.3971 20.1386H9.50046C9.77382 20.1386 9.98223 20.0991 10.1257 20.0199C10.2398 19.9559 10.3301 19.8582 10.3968 19.7267C10.4634 19.5952 10.4968 19.4498 10.4968 19.2904C10.4968 19.117 10.4606 18.9634 10.3883 18.8296C10.316 18.6946 10.2161 18.5946 10.0884 18.5294C10.0161 18.4934 9.93536 18.4683 9.84612 18.4544C9.75688 18.4404 9.63827 18.4334 9.4903 18.4334H9.3971V20.1386Z" fill="#FAFAFA" fill-opacity="0.7"/>
<path fill-rule="evenodd" clip-rule="evenodd" d="M8.92098 1.88057V4.52128H9.3971V3.5177H9.5496C9.72243 3.5177 9.85685 3.50956 9.95287 3.49327C10.0489 3.47698 10.1319 3.44905 10.2019 3.40949C10.3126 3.3455 10.3996 3.2495 10.4629 3.12151C10.5273 2.99352 10.5595 2.85098 10.5595 2.6939C10.5595 2.54613 10.5312 2.41348 10.4747 2.29596C10.4183 2.17844 10.3381 2.08477 10.2341 2.01496C10.1573 1.96493 10.0686 1.93002 9.96811 1.91024C9.86871 1.89046 9.73146 1.88057 9.55638 1.88057H8.92098ZM9.53604 3.0482H9.3971V2.34832H9.55638C9.68967 2.34832 9.7902 2.35647 9.85798 2.37276C9.92688 2.39254 9.9811 2.4321 10.0206 2.49144C10.0602 2.55078 10.0799 2.62234 10.0799 2.70612C10.0799 2.78175 10.0602 2.84691 10.0206 2.9016C9.98223 2.95628 9.92914 2.99352 9.86137 3.0133C9.78907 3.03657 9.68063 3.0482 9.53604 3.0482Z" fill="#FAFAFA" fill-opacity="0.7"/>
<path d="M6.94023 3.62766H4.33765V2.73404H6.94023V3.62766Z" fill="#FAFAFA" fill-opacity="0.7"/>
<path d="M4.33765 8.98936H6.94023V8.09574H4.33765V8.98936Z" fill="#FAFAFA" fill-opacity="0.7"/>
<path d="M4.33765 19.7128H6.94023V18.8191H4.33765V19.7128Z" fill="#FAFAFA" fill-opacity="0.7"/>
</g>
</svg>
