<svg width="28" height="28" viewBox="0 0 28 28" fill="none" xmlns="http://www.w3.org/2000/svg">
<path fill-rule="evenodd" clip-rule="evenodd" d="M23.6843 14.5059C24.9125 14.5059 25.9082 15.5017 25.9082 16.7299C25.9082 17.9581 24.9125 18.9538 23.6843 18.9538C22.4561 18.9538 21.4603 17.9581 21.4603 16.7299C21.4603 15.5017 22.4561 14.5059 23.6843 14.5059ZM11.2315 11.9584C10.8806 11.8786 10.5319 11.8786 10.181 11.8946C12.9268 10.4522 14.0046 9.51569 17.2198 9.70481L16.7777 12.6374L11.4844 12.838C11.5323 12.699 11.5596 12.6238 11.5687 12.4848C11.5938 12.0883 11.5892 12.0404 11.2315 11.9584ZM18.0287 9.75722L17.4545 12.5987L22.9528 12.3754C23.5179 12.3526 23.6159 12.1042 23.2741 11.628C23.1192 11.4115 22.946 11.1973 22.7478 10.9854C21.3259 9.46783 19.9108 9.78229 18.0287 9.75722ZM0.104854 15.2602H0.273474C0.378292 14.7953 0.585648 14.376 0.890987 14.0001C1.56091 13.1661 1.86625 13.2709 2.86202 13.0909L8.43558 12.0404C9.67289 11.1609 11.1654 10.377 12.986 9.71621C14.6745 9.10097 15.8662 9.04173 17.6732 9.04401C18.7077 9.04628 19.7559 9.10781 20.82 9.23541C21.3601 9.26959 21.8887 9.34251 22.4082 9.44733C23.0303 9.57265 23.641 9.74583 24.2403 9.95091L26.4733 11.2406C27.1319 11.6212 27.2731 12.0655 27.3575 12.7924L27.6719 15.4766H27.9978V16.96C27.9522 17.459 27.7562 17.5342 27.3415 17.5342H26.8015C27.0111 12.8425 20.4099 12.0404 20.5534 17.9057H7.92061C8.77054 13.8611 4.69177 12.4574 2.68884 14.7702C2.08044 15.4743 1.86853 16.4359 1.92321 17.573H0.462601C0.346391 17.5183 0.255245 17.4431 0.186885 17.3497C-0.0523725 17.0238 3.63141e-05 16.0417 0.0182655 15.4743C0.0205441 15.3217 -0.0273074 15.2602 0.104854 15.2602ZM4.98116 14.5059C6.20935 14.5059 7.20511 15.5017 7.20511 16.7299C7.20511 17.9581 6.20935 18.9538 4.98116 18.9538C3.75297 18.9538 2.7572 17.9581 2.7572 16.7299C2.7572 15.5017 3.75297 14.5059 4.98116 14.5059Z" fill="#27AC5B"/>
</svg>
