<svg width="23" height="23" viewBox="0 0 23 23" fill="none" xmlns="http://www.w3.org/2000/svg">
<path d="M3.15625 11.5C3.15625 6.90019 6.90019 3.15625 11.5 3.15625C16.0998 3.15625 19.8438 6.90019 19.8438 11.5C19.8438 16.0998 16.0998 19.8438 11.5 19.8438C6.90019 19.8438 3.15625 16.0998 3.15625 11.5Z" stroke="#27AC5B" stroke-width="2"/>
<path d="M13.6648 7.61066L14.7474 8.55672L11.4407 12.3346L10.3581 11.2988L13.6648 7.61066ZM8.62184 15.3916L5.45215 12.2188L6.46873 11.2022L9.63887 14.375L8.62184 15.3916ZM11.5418 15.4271L8.33523 12.2188L9.35227 11.2026L11.4708 13.3234L16.4629 7.61066L17.5456 8.55672L11.5418 15.4271Z" fill="#27AC5B"/>
</svg>
