<svg width="19" height="19" viewBox="0 0 19 19" fill="none" xmlns="http://www.w3.org/2000/svg">
<path fill-rule="evenodd" clip-rule="evenodd" d="M9.49967 17.4166C13.8719 17.4166 17.4163 13.8721 17.4163 9.49992C17.4163 5.12766 13.8719 1.58325 9.49967 1.58325C5.12742 1.58325 1.58301 5.12766 1.58301 9.49992C1.58301 13.8721 5.12742 17.4166 9.49967 17.4166ZM10.0938 6.33325C10.0938 6.00534 9.82791 5.7395 9.5 5.7395C9.17209 5.7395 8.90625 6.00534 8.90625 6.33325V9.49992C8.90625 9.65738 8.96879 9.80843 9.08018 9.91974L11.0593 11.8989C11.2912 12.1308 11.6671 12.1308 11.899 11.8989C12.1309 11.667 12.1309 11.2911 11.899 11.0593L10.0938 9.25395V6.33325Z" fill="#FAFAFA"/>
</svg>
