<svg width="41" height="37" viewBox="0 0 41 37" fill="none" xmlns="http://www.w3.org/2000/svg">
<g filter="url(#filter0_b_923_672)">
<rect width="41" height="37" rx="15" fill="#0866FF" fill-opacity="0.2"/>
<path fill-rule="evenodd" clip-rule="evenodd" d="M17.9273 12.46C17.9273 10.8008 19.2281 9.5 20.8873 9.5C22.5465 9.5 23.8473 10.8008 23.8473 12.46C23.8473 14.1192 22.5465 15.42 20.8873 15.42C19.2281 15.42 17.9273 14.1192 17.9273 12.46ZM15.6247 17.3047C15.8979 16.6196 16.5771 16.16 17.3244 16.16H24.2156C24.9629 16.16 25.6508 16.6239 25.9269 17.3162L27.0137 19.86H27.43C28.0414 19.86 28.54 20.3586 28.54 20.97C28.54 21.5814 28.0414 22.08 27.43 22.08V26.89C27.43 27.5014 26.9314 28 26.32 28H25.21C24.5986 28 24.1 27.5014 24.1 26.89V26.52H17.44V26.89C17.44 27.5014 16.9414 28 16.33 28H15.22C14.6086 28 14.11 27.5014 14.11 26.89V22.08C13.4986 22.08 13 21.5814 13 20.97C13 20.3586 13.4986 19.86 14.11 19.86H14.5262L15.6247 17.3047ZM24.2156 16.9H17.3244C16.8763 16.9 16.4731 17.1804 16.3069 17.5938L15.2547 20.0566L15.6131 20.2878C15.9109 20.4959 16.2433 20.6 16.6306 20.6H24.9094C25.2967 20.6 25.6364 20.5032 25.9269 20.2994L26.2853 20.0566L25.2447 17.6053C25.0756 17.1833 24.6637 16.9 24.2156 16.9ZM17.81 23.745C17.81 23.2276 17.4024 22.82 16.885 22.82C16.3676 22.82 15.96 23.2276 15.96 23.745C15.96 24.2624 16.3676 24.67 16.885 24.67C17.4024 24.67 17.81 24.2624 17.81 23.745ZM25.58 23.745C25.58 23.2276 25.1724 22.82 24.655 22.82C24.1376 22.82 23.73 23.2276 23.73 23.745C23.73 24.2624 24.1376 24.67 24.655 24.67C25.1724 24.67 25.58 24.2624 25.58 23.745ZM22.4772 11.8841C22.6725 11.6888 22.6725 11.3722 22.4772 11.177C22.282 10.9817 21.9654 10.9817 21.7701 11.177L20.3188 12.6283L19.7699 12.0794C19.5747 11.8841 19.2581 11.8841 19.0628 12.0794C18.8676 12.2747 18.8676 12.5913 19.0628 12.7865L19.9653 13.689C20.1605 13.8842 20.4771 13.8842 20.6724 13.689L22.4772 11.8841Z" fill="#0866FF"/>
</g>
<defs>
<filter id="filter0_b_923_672" x="-30" y="-30" width="101" height="97" filterUnits="userSpaceOnUse" color-interpolation-filters="sRGB">
<feFlood flood-opacity="0" result="BackgroundImageFix"/>
<feGaussianBlur in="BackgroundImageFix" stdDeviation="15"/>
<feComposite in2="SourceAlpha" operator="in" result="effect1_backgroundBlur_923_672"/>
<feBlend mode="normal" in="SourceGraphic" in2="effect1_backgroundBlur_923_672" result="shape"/>
</filter>
</defs>
</svg>
