<svg width="10" height="8" viewBox="0 0 10 8" fill="none" xmlns="http://www.w3.org/2000/svg">
<path fill-rule="evenodd" clip-rule="evenodd" d="M0.185059 3.25285C0.185059 2.81226 0.713599 2.58703 1.03138 2.89221L4.21646 5.95091C4.69709 6.41247 5.38164 6.40424 5.87406 5.93098L8.96822 2.95729C9.28596 2.65193 9.81469 2.87711 9.81469 3.31779V6.81933C9.81469 7.37161 9.36697 7.81933 8.81469 7.81933H1.18506C0.632773 7.81933 0.185059 7.37161 0.185059 6.81933V3.25285ZM0.870113 1.32834C0.664947 1.13132 0.66953 0.786338 0.945775 0.718507C1.02244 0.699681 1.10258 0.689697 1.18506 0.689697H8.81469C8.93452 0.689697 9.04944 0.710776 9.15592 0.749428C9.41028 0.841756 9.40007 1.16703 9.20497 1.35453L5.3324 5.07632C5.16826 5.23408 4.94008 5.23682 4.77987 5.08297L0.870113 1.32834Z" fill="#27AC5B"/>
</svg>
