<svg width="13" height="11" viewBox="0 0 13 11" fill="none" xmlns="http://www.w3.org/2000/svg">
<path id="email" fill-rule="evenodd" clip-rule="evenodd" d="M0 3.9053C0 3.46471 0.528542 3.23949 0.846327 3.54467L5.59121 8.10128C6.15194 8.63977 6.95058 8.63016 7.52507 8.07803L12.1535 3.62978C12.4713 3.32441 13 3.5496 13 3.99028V9.375C13 9.92729 12.5523 10.375 12 10.375H1C0.447715 10.375 0 9.92729 0 9.375V3.9053ZM0.777843 1.36541C0.561084 1.15725 0.58555 0.791104 0.884092 0.756645C0.922119 0.752256 0.960796 0.75 1 0.75H12C12.0913 0.75 12.1797 0.762226 12.2637 0.785129C12.5349 0.859083 12.5359 1.19946 12.3332 1.39428L6.71258 6.79604C6.63051 6.87492 6.51642 6.87629 6.43632 6.79937L0.777843 1.36541Z" fill="#27AC5B"/>
</svg>
