<svg xmlns="http://www.w3.org/2000/svg" width="14" height="14" viewBox="0 0 14 14" fill="none">
    <path fill-rule="evenodd" clip-rule="evenodd" d="M10.6132 11.627C10.6132 11.0089 10.6005 9.02641 10.6005 8.44314C10.6005 7.72361 10.548 7.368 9.51384 7.27992C9.49754 9.34547 9.48124 11.4526 9.48124 12.5875H10.2329L10.2003 14L0.0633891 13.9668L0 12.5875H0.845795C0.815006 10.1215 0.719017 2.421 0.69185 1.62004C0.65925 0.664539 1.17904 0.0978861 2.41604 0.0679748C3.65304 0.0380635 6.9022 -0.0217592 7.97439 0.00815209C9.04657 0.0380634 9.54101 0.446851 9.54101 1.75963C9.54101 2.2731 9.53014 4.16582 9.51746 6.28288C11.2978 6.43576 11.6908 7.26165 11.6908 8.44314C11.6908 9.02309 11.7035 11.1634 11.7035 11.627C11.7035 12.2568 12.9006 12.3133 12.9006 11.6038C12.9006 11.0886 12.9006 6.45238 12.9006 6.45238L11.4699 5.22768L11.6727 3.43134L10.2419 2.07702L10.9301 1.33921L13.9746 4.12262C13.9746 4.12262 14 9.66784 14 11.6004C14 13.5331 10.6132 13.4732 10.6132 11.627ZM1.87451 1.68817C1.87451 1.68817 1.93066 2.90623 1.93066 4.48322C1.93066 6.92099 8.35291 6.79802 8.35291 4.45829C8.35291 3.14386 8.38189 1.63333 8.38189 1.63333L1.87451 1.68817Z" fill="#FAFAFA"/>
</svg>