<svg width="21" height="21" viewBox="0 0 21 21" fill="none" xmlns="http://www.w3.org/2000/svg">
<g id="24-hour-service-svgrepo-com (1) 1" clip-path="url(#clip0_1918_180)">
<g id="Group">
<g id="Layer_2_17_">
<g id="Group_2">
<path id="Vector" d="M12.2233 18.6518C12.0585 18.6963 11.8903 18.7359 11.7234 18.7702C11.2867 18.8592 11.0049 19.2853 11.0941 19.722C11.0991 19.747 11.1054 19.7707 11.1125 19.7945C11.2316 20.1892 11.6342 20.4355 12.0462 20.3514C12.2454 20.3107 12.4461 20.2632 12.6429 20.2102C13.0734 20.0945 13.3283 19.6516 13.2125 19.2211C13.0966 18.7901 12.6538 18.5359 12.2233 18.6518Z" fill="#27AC5B"/>
<path id="Vector_2" d="M6.59783 18.2025C6.44197 18.1331 6.28649 18.058 6.13564 17.9791C5.74035 17.773 5.25304 17.9262 5.04691 18.3215C4.94516 18.5158 4.93087 18.7328 4.98967 18.9274C5.05037 19.1282 5.18847 19.3054 5.38883 19.41C5.56889 19.5038 5.75395 19.5935 5.93961 19.6762C6.34646 19.8579 6.82375 19.6755 7.00554 19.2687C7.18733 18.8615 7.00472 18.3846 6.59783 18.2025Z" fill="#27AC5B"/>
<path id="Vector_3" d="M9.3728 18.9119C9.20307 18.8983 9.03089 18.879 8.86188 18.8553C8.42054 18.7924 8.01219 19.0995 7.94948 19.5408C7.93246 19.6607 7.94288 19.778 7.97565 19.8867C8.06361 20.1782 8.31388 20.4073 8.63527 20.4532C8.83636 20.4816 9.04103 20.5044 9.2433 20.5205C9.68769 20.5565 10.0768 20.2253 10.1126 19.7812C10.1483 19.3368 9.81729 18.9477 9.3728 18.9119Z" fill="#27AC5B"/>
<path id="Vector_4" d="M14.8225 17.4481C14.6823 17.5446 14.5369 17.6382 14.3905 17.7266C14.0679 17.9209 13.9302 18.3053 14.0341 18.65C14.0532 18.7132 14.0805 18.7751 14.1161 18.8344C14.346 19.2161 14.842 19.3387 15.2238 19.1089C15.3978 19.0039 15.5707 18.8923 15.7374 18.7776C16.1045 18.5249 16.1975 18.0224 15.9447 17.6555C15.6921 17.2881 15.1895 17.1955 14.8225 17.4481Z" fill="#27AC5B"/>
<path id="Vector_5" d="M17.9945 15.2657C17.6331 15.0051 17.1287 15.0868 16.868 15.4481C16.7684 15.5863 16.6631 15.7234 16.5552 15.855C16.3781 16.0711 16.3322 16.3513 16.407 16.6001C16.4519 16.7482 16.5395 16.8853 16.6681 16.9907C17.0128 17.2731 17.5213 17.2224 17.8036 16.8776C17.9324 16.7206 18.0582 16.5571 18.1768 16.3923C18.4376 16.0308 18.356 15.5266 17.9945 15.2657Z" fill="#27AC5B"/>
<path id="Vector_6" d="M19.1244 12.3263C18.6966 12.2013 18.2485 12.4471 18.1238 12.8749C18.0758 13.0387 18.0224 13.2033 17.9652 13.3638C17.9045 13.5328 17.9036 13.709 17.9519 13.8686C18.0232 14.1053 18.2019 14.306 18.4522 14.3957C18.8718 14.5462 19.3336 14.3282 19.4843 13.9088C19.5528 13.7175 19.6163 13.5216 19.673 13.3267C19.7977 12.8991 19.5521 12.4508 19.1244 12.3263Z" fill="#27AC5B"/>
<path id="Vector_7" d="M20.6385 7.06847L19.5779 7.39801C18.773 4.93151 17.0784 2.90467 14.7846 1.67369C14.5538 1.54969 14.3195 1.43575 14.0825 1.33105C14.0807 1.33023 14.0794 1.32954 14.0778 1.3285C14.0679 1.32431 14.0574 1.3204 14.0478 1.31612C11.9566 0.401078 9.64236 0.227617 7.42399 0.828362C7.40656 0.831775 7.38913 0.835051 7.37193 0.83992C7.29785 0.860124 7.22309 0.882011 7.14933 0.904035C7.02824 0.94062 6.90643 0.980027 6.78693 1.02103C6.77278 1.02589 6.75945 1.03195 6.74571 1.03741C4.76546 1.72338 3.07912 2.98812 1.87609 4.67796C1.87181 4.68379 1.86698 4.68879 1.86294 4.69457C1.74535 4.85971 1.63146 5.03094 1.52388 5.20367C1.51715 5.21473 1.51155 5.22624 1.50514 5.23766C1.39784 5.41167 1.29473 5.58968 1.19707 5.77124C0.199988 7.62945 -0.18038 9.70566 0.0791295 11.7565C0.0797211 11.7612 0.0802671 11.7656 0.0806767 11.7702C0.0810862 11.7735 0.0818143 11.7769 0.0825878 11.7803C0.153119 12.3282 0.268973 12.8743 0.43165 13.4137C0.858842 14.83 1.57166 16.1035 2.55018 17.1991C2.84701 17.5314 3.3572 17.56 3.68965 17.2632C4.02192 16.9663 4.05091 16.456 3.75386 16.1238C3.26537 15.5771 2.85656 14.9767 2.52934 14.3298C2.52584 14.3219 2.52274 14.3137 2.51892 14.3061C2.44197 14.1535 2.36885 13.997 2.30114 13.8404C2.30078 13.8392 2.30037 13.8385 2.29982 13.8375C2.17659 13.5493 2.06916 13.2526 1.97706 12.9477C0.919408 9.44092 2.26824 5.77138 5.06733 3.71969C5.10874 3.68957 5.1501 3.65917 5.19192 3.62996C5.91052 3.12313 6.72104 2.72124 7.6081 2.45377C8.5008 2.18466 9.40355 2.07162 10.2877 2.09811C10.302 2.09874 10.3159 2.09915 10.33 2.09956C10.384 2.1012 10.4378 2.10407 10.4915 2.10707C10.5132 2.10821 10.5348 2.10939 10.5564 2.11076C13.3134 2.28322 15.8557 3.81443 17.2829 6.22C17.2836 6.22137 17.2842 6.22292 17.2851 6.22428C17.3063 6.26 17.327 6.29568 17.3477 6.33181C17.3502 6.33586 17.3528 6.33945 17.3552 6.34359C17.6283 6.82243 17.858 7.33486 18.0367 7.87713L16.9762 8.20685C16.6817 8.29836 16.6527 8.51027 16.9112 8.67782L19.2191 10.1727C19.4778 10.3404 19.7864 10.2444 19.9044 9.95994L20.9588 7.4199C21.0767 7.13523 20.9328 6.97701 20.6385 7.06847Z" fill="#27AC5B"/>
<path id="Vector_8" d="M7.06638 10.5219C6.28862 11.0981 5.75813 11.5979 5.47537 12.0213C5.19288 12.4446 5.02342 12.8965 4.96777 13.3771H9.83375V12.0551H7.30113C7.44984 11.9089 7.57921 11.7909 7.68942 11.7008C7.79967 11.6102 8.01782 11.4525 8.34445 11.2268C8.89387 10.8392 9.27291 10.4835 9.48137 10.1595C9.68964 9.83576 9.79389 9.49594 9.79389 9.14019C9.79389 8.80578 9.70302 8.50372 9.52119 8.23411C9.33921 7.96477 9.08953 7.76492 8.77237 7.63482C8.45525 7.50491 8.01118 7.4397 7.44033 7.4397C6.89364 7.4397 6.46568 7.50818 6.15625 7.6451C5.84719 7.7818 5.60742 7.97815 5.43765 8.23411C5.26769 8.49057 5.15102 8.84691 5.08718 9.30332L6.71185 9.43469C6.75695 9.10574 6.84532 8.87599 6.9766 8.74598C7.10815 8.61589 7.27711 8.55077 7.48447 8.55077C7.68346 8.55077 7.84877 8.61393 7.9801 8.74007C8.11142 8.86593 8.17722 9.01805 8.17722 9.19602C8.17722 9.3607 8.11088 9.53448 7.97805 9.71777C7.84532 9.90088 7.54135 10.1691 7.06638 10.5219Z" fill="#27AC5B"/>
<path id="Vector_9" d="M14.7276 13.3772V12.286H15.4602V11.0275H14.7276V7.43974H13.314L10.3594 10.9521V12.286H13.314V13.3772H14.7276ZM11.7529 11.0275L13.314 9.19065V11.0275H11.7529Z" fill="#27AC5B"/>
</g>
</g>
</g>
</g>
<defs>
<clipPath id="clip0_1918_180">
<rect width="21" height="21" fill="white"/>
</clipPath>
</defs>
</svg>
