<svg xmlns="http://www.w3.org/2000/svg" width="16" height="12" viewBox="0 0 16 12" fill="none">
    <path fill-rule="evenodd" clip-rule="evenodd" d="M0 1.9541C0 1.71419 0.286431 1.66116 0.456437 1.83044L7.25333 8.59804C7.77888 9.12133 8.57066 9.11302 9.10276 8.57861L15.7738 1.87873C15.8586 1.79353 16 1.83386 16 1.9541V10.9541C16 11.5064 15.5523 11.9541 15 11.9541H1C0.447715 11.9541 0 11.5064 0 10.9541V1.9541ZM1.86338 1.80842C1.54735 1.49375 1.77019 0.954102 2.21617 0.954102H15C15.1175 0.954102 15.1576 1.09218 15.0747 1.17546L8.49122 7.7874C8.31385 7.96554 8.04993 7.96831 7.87474 7.79388L1.86338 1.80842Z" fill="#FAFAFA"/>
</svg>