<svg xmlns="http://www.w3.org/2000/svg" width="16" height="20" viewBox="0 0 16 20" fill="none">
    <path fill-rule="evenodd" clip-rule="evenodd" d="M3.17779 5.44699C3.82754 5.27119 4.30556 4.67748 4.30556 3.97211C4.30556 3.12835 3.62155 2.44434 2.77778 2.44434C1.93401 2.44434 1.25 3.12835 1.25 3.97211C1.25 4.67748 1.72802 5.2712 2.37779 5.447V9.77768V14.1083C1.72802 14.2841 1.25 14.8779 1.25 15.5832C1.25 16.427 1.93401 17.111 2.77778 17.111C3.62155 17.111 4.30556 16.427 4.30556 15.5832C4.30556 14.8779 3.82754 14.2842 3.17779 14.1084V10.1777H8.10001V14.1083C7.45023 14.2841 6.9722 14.8779 6.9722 15.5832C6.9722 16.427 7.65621 17.111 8.49998 17.111C9.34374 17.111 10.0278 16.427 10.0278 15.5832C10.0278 14.8779 9.54975 14.2842 8.90001 14.1084V10.1777H13.8222V16.5528C13.1725 16.7286 12.6944 17.3223 12.6944 18.0277C12.6944 18.8714 13.3785 19.5554 14.2222 19.5554C15.066 19.5554 15.75 18.8714 15.75 18.0277C15.75 17.3223 15.272 16.7286 14.6222 16.5528V9.77768V5.44699C15.272 5.27119 15.75 4.67748 15.75 3.97211C15.75 3.12835 15.066 2.44434 14.2222 2.44434C13.3785 2.44434 12.6944 3.12835 12.6944 3.97211C12.6944 4.67748 13.1725 5.2712 13.8222 5.447V9.37768H8.90001V5.44698C9.54975 5.27118 10.0278 4.67747 10.0278 3.97211C10.0278 3.12835 9.34374 2.44434 8.49998 2.44434C7.65621 2.44434 6.9722 3.12835 6.9722 3.97211C6.9722 4.67749 7.45023 5.27122 8.10001 5.447V9.37768H3.17779V5.44699Z" fill="#FAFAFA" fill-opacity="0.7"/>
</svg>