<svg width="41" height="37" viewBox="0 0 41 37" fill="none" xmlns="http://www.w3.org/2000/svg">
<g filter="url(#filter0_b_923_657)">
<rect width="41" height="37" rx="15" fill="#F0F465" fill-opacity="0.2"/>
<g clip-path="url(#clip0_923_657)">
<path fill-rule="evenodd" clip-rule="evenodd" d="M10.9999 13.1111V23.6667C10.9999 24.8326 11.9451 25.7778 13.111 25.7778H27.8888C29.0547 25.7778 29.9999 24.8326 29.9999 23.6667V13.1111C29.9999 11.9452 29.0547 11 27.8888 11H13.111C11.9451 11 10.9999 11.9452 10.9999 13.1111ZM23.1666 16.2778C23.1666 16.0017 23.3904 15.7778 23.6666 15.7778H26.8332C27.1094 15.7778 27.3332 16.0017 27.3332 16.2778C27.3332 16.554 27.1094 16.7778 26.8332 16.7778H23.6666C23.3904 16.7778 23.1666 16.554 23.1666 16.2778ZM23.6666 18.9444C23.3904 18.9444 23.1666 19.1683 23.1666 19.4444C23.1666 19.7205 23.3904 19.9444 23.6666 19.9444H26.8332C27.1094 19.9444 27.3332 19.7205 27.3332 19.4444C27.3332 19.1683 27.1094 18.9444 26.8332 18.9444H23.6666ZM17.3331 14.6667C16.4433 14.6667 15.722 15.388 15.722 16.2778C15.722 17.1676 16.4433 17.8889 17.3331 17.8889C18.2229 17.8889 18.9442 17.1676 18.9442 16.2778C18.9442 15.8505 18.7745 15.4407 18.4723 15.1386L18.4723 15.1386C18.1702 14.8364 17.7604 14.6667 17.3331 14.6667ZM14.722 16.2778C14.722 14.8357 15.891 13.6667 17.3331 13.6667C18.0256 13.6667 18.6897 13.9418 19.1794 14.4314C19.6691 14.9211 19.9442 15.5853 19.9442 16.2778C19.9442 17.7199 18.7752 18.8889 17.3331 18.8889C15.891 18.8889 14.722 17.7199 14.722 16.2778ZM13.485 22.9429C14.8637 21.3888 16.3121 20.9016 17.6201 21.016C18.951 21.1325 20.2183 21.8796 21.1848 22.9467C21.3701 23.1514 21.6863 23.167 21.891 22.9817C22.0957 22.7963 22.1114 22.4801 21.926 22.2754C20.8362 21.0721 19.3501 20.1636 17.7073 20.0198C16.0415 19.8741 14.2958 20.5221 12.7369 22.2793C12.5537 22.4858 12.5725 22.8018 12.7791 22.9851C12.9857 23.1684 13.3017 23.1495 13.485 22.9429Z" fill="#F0F465"/>
</g>
</g>
<defs>
<filter id="filter0_b_923_657" x="-30" y="-30" width="101" height="97" filterUnits="userSpaceOnUse" color-interpolation-filters="sRGB">
<feFlood flood-opacity="0" result="BackgroundImageFix"/>
<feGaussianBlur in="BackgroundImageFix" stdDeviation="15"/>
<feComposite in2="SourceAlpha" operator="in" result="effect1_backgroundBlur_923_657"/>
<feBlend mode="normal" in="SourceGraphic" in2="effect1_backgroundBlur_923_657" result="shape"/>
</filter>
<clipPath id="clip0_923_657">
<rect width="19" height="19" fill="white" transform="translate(11 9)"/>
</clipPath>
</defs>
</svg>
