<svg width="41" height="37" viewBox="0 0 41 37" fill="none" xmlns="http://www.w3.org/2000/svg">
<g filter="url(#filter0_b_575_300)">
<rect width="41" height="37" rx="15" fill="#27AC5B" fill-opacity="0.2"/>
<path fill-rule="evenodd" clip-rule="evenodd" d="M16.72 11C17.0332 11 17.287 11.2735 17.287 11.6109V12.8431C17.79 12.8326 18.3537 12.8326 18.988 12.8326H18.988H22.012H22.012C22.6463 12.8326 23.21 12.8326 23.713 12.8431V11.6109C23.713 11.2735 23.9669 11 24.28 11C24.5931 11 24.847 11.2735 24.847 11.6109V12.8971C25.9351 12.991 26.6494 13.2214 27.1742 13.7868C27.699 14.3522 27.9129 15.1218 28 16.2941H13C13.0871 15.1218 13.301 14.3522 13.8258 13.7868C14.3506 13.2214 15.0649 12.991 16.1531 12.8971V11.6109C16.1531 11.2735 16.4069 11 16.72 11ZM13.0097 17.1764C13 17.6556 13 18.1927 13 18.797V20.2376C13 22.954 13 24.3122 13.8787 25.156C14.7574 25.9999 16.1716 25.9999 19 25.9999H22C24.8284 25.9999 26.2427 25.9999 27.1213 25.156C28 24.3122 28 22.954 28 20.2376V18.797C28 18.1927 28 17.6556 27.9903 17.1764H13.0097ZM25 19.5173C25 19.9151 24.6642 20.2376 24.25 20.2376C23.8358 20.2376 23.5 19.9151 23.5 19.5173C23.5 19.1195 23.8358 18.797 24.25 18.797C24.6642 18.797 25 19.1195 25 19.5173ZM25 22.3985C25 22.7963 24.6642 23.1188 24.25 23.1188C23.8358 23.1188 23.5 22.7963 23.5 22.3985C23.5 22.0007 23.8358 21.6782 24.25 21.6782C24.6642 21.6782 25 22.0007 25 22.3985ZM20.5 20.2376C20.9142 20.2376 21.25 19.9151 21.25 19.5173C21.25 19.1195 20.9142 18.797 20.5 18.797C20.0858 18.797 19.75 19.1195 19.75 19.5173C19.75 19.9151 20.0858 20.2376 20.5 20.2376ZM20.5 23.1188C20.9142 23.1188 21.25 22.7963 21.25 22.3985C21.25 22.0007 20.9142 21.6782 20.5 21.6782C20.0858 21.6782 19.75 22.0007 19.75 22.3985C19.75 22.7963 20.0858 23.1188 20.5 23.1188ZM17.5 19.5173C17.5 19.9151 17.1642 20.2376 16.75 20.2376C16.3358 20.2376 16 19.9151 16 19.5173C16 19.1195 16.3358 18.797 16.75 18.797C17.1642 18.797 17.5 19.1195 17.5 19.5173ZM17.5 22.3985C17.5 22.7963 17.1642 23.1188 16.75 23.1188C16.3358 23.1188 16 22.7963 16 22.3985C16 22.0007 16.3358 21.6782 16.75 21.6782C17.1642 21.6782 17.5 22.0007 17.5 22.3985Z" fill="#27AC5B"/>
</g>
<defs>
<filter id="filter0_b_575_300" x="-30" y="-30" width="101" height="97" filterUnits="userSpaceOnUse" color-interpolation-filters="sRGB">
<feFlood flood-opacity="0" result="BackgroundImageFix"/>
<feGaussianBlur in="BackgroundImageFix" stdDeviation="15"/>
<feComposite in2="SourceAlpha" operator="in" result="effect1_backgroundBlur_575_300"/>
<feBlend mode="normal" in="SourceGraphic" in2="effect1_backgroundBlur_575_300" result="shape"/>
</filter>
</defs>
</svg>
