<svg width="41" height="37" viewBox="0 0 41 37" fill="none" xmlns="http://www.w3.org/2000/svg">
<g filter="url(#filter0_b_575_285)">
<rect width="41" height="37" rx="15" fill="#F8B132" fill-opacity="0.2"/>
<path d="M20.5 10.5C16.084 10.5 12.5 14.084 12.5 18.5C12.5 22.916 16.084 26.5 20.5 26.5C24.916 26.5 28.5 22.916 28.5 18.5C28.5 14.084 24.916 10.5 20.5 10.5ZM21.628 23.372V24.9H19.492V23.356C18.124 23.068 16.964 22.188 16.876 20.636H18.444C18.524 21.476 19.1 22.132 20.564 22.132C22.132 22.132 22.484 21.348 22.484 20.86C22.484 20.196 22.132 19.572 20.348 19.148C18.364 18.668 17.004 17.852 17.004 16.212C17.004 14.836 18.116 13.94 19.492 13.644V12.1H21.628V13.66C23.116 14.02 23.86 15.148 23.908 16.372H22.34C22.3 15.484 21.828 14.876 20.564 14.876C19.364 14.876 18.644 15.42 18.644 16.188C18.644 16.86 19.164 17.3 20.78 17.716C22.396 18.132 24.124 18.828 24.124 20.844C24.116 22.308 23.02 23.108 21.628 23.372Z" fill="#F8B132"/>
</g>
<defs>
<filter id="filter0_b_575_285" x="-30" y="-30" width="101" height="97" filterUnits="userSpaceOnUse" color-interpolation-filters="sRGB">
<feFlood flood-opacity="0" result="BackgroundImageFix"/>
<feGaussianBlur in="BackgroundImageFix" stdDeviation="15"/>
<feComposite in2="SourceAlpha" operator="in" result="effect1_backgroundBlur_575_285"/>
<feBlend mode="normal" in="SourceGraphic" in2="effect1_backgroundBlur_575_285" result="shape"/>
</filter>
</defs>
</svg>
