<svg width="41" height="37" viewBox="0 0 41 37" fill="none" xmlns="http://www.w3.org/2000/svg">
<g filter="url(#filter0_b_575_267)">
<rect width="41" height="37" rx="15" fill="#CA66C2" fill-opacity="0.2"/>
<g clip-path="url(#clip0_575_267)">
<path fill-rule="evenodd" clip-rule="evenodd" d="M13.8243 16.9661C12.3946 16.2395 12.5587 15.4296 13.9949 15.5142L14.3165 16.1171L14.9792 14.0559C15.2397 13.2447 15.6733 12.509 16.5235 12.509H25.0001C25.8503 12.509 26.3399 13.2304 26.5457 14.0546L27.043 16.0533L27.3295 15.5142C28.8061 15.4283 28.9376 16.2864 27.3751 17.0273L27.629 17.4166C28.6563 18.4726 28.56 20.3398 28.3998 22.9478V24.0077C28.3998 24.2734 28.1824 24.4908 27.9167 24.4908H25.8555C25.5899 24.4908 25.3725 24.2734 25.3725 24.0077V23.4166H15.6303V24.0077C15.6303 24.2734 15.4128 24.4908 15.1472 24.4908H13.086C12.8204 24.4908 12.6029 24.2734 12.6029 24.0077V22.6913C12.6029 22.6653 12.6055 22.6405 12.6082 22.6158C12.4519 20.6145 12.2318 17.9973 13.8243 16.9661ZM16.4558 20.1523L14.6251 19.9218C14.1928 19.8736 14.0769 20.0559 14.224 20.4283L14.422 20.9088C14.4858 21.0325 14.5704 21.1223 14.6693 21.1848C14.7852 21.2564 14.9246 21.2916 15.0795 21.2981L16.7123 21.3111C17.1068 21.3098 17.2774 21.1523 17.1537 20.7903C17.0522 20.4504 16.8204 20.2369 16.4558 20.1523ZM19.5808 19.3827H21.4558C21.5665 19.3827 21.6576 19.4739 21.6576 19.5846C21.6576 19.6952 21.5665 19.7864 21.4558 19.7864H19.5808C19.4701 19.7864 19.379 19.6952 19.379 19.5846C19.3777 19.4739 19.4688 19.3827 19.5808 19.3827ZM24.2136 22.0338H26.0886C26.1993 22.0338 26.2904 22.1249 26.2904 22.2356C26.2904 22.3463 26.1993 22.4374 26.0886 22.4374H24.2136C24.1029 22.4374 24.0118 22.3463 24.0118 22.2356C24.0118 22.1249 24.1016 22.0338 24.2136 22.0338ZM24.5443 20.1523L26.3751 19.9218C26.8074 19.8736 26.9233 20.0559 26.7761 20.4283L26.5782 20.9088C26.5144 21.0325 26.4298 21.1223 26.3308 21.1848C26.2149 21.2564 26.0756 21.2916 25.9207 21.2981L24.2878 21.3111C23.8933 21.3098 23.7227 21.1523 23.8464 20.7903C23.948 20.4504 24.1798 20.2369 24.5443 20.1523ZM14.8972 22.0338H16.7722C16.8829 22.0338 16.974 22.1249 16.974 22.2356C16.974 22.3463 16.8829 22.4374 16.7722 22.4374H14.8972C14.7865 22.4374 14.6954 22.3463 14.6954 22.2356C14.6954 22.1249 14.7865 22.0338 14.8972 22.0338ZM15.004 16.5715H26.3087L25.81 14.4986C25.6733 13.8671 25.28 13.3202 24.6316 13.3202H16.8048C16.1576 13.3202 15.8256 13.8814 15.6264 14.4986L15.004 16.5715Z" fill="#CA66C2"/>
</g>
</g>
<defs>
<filter id="filter0_b_575_267" x="-30" y="-30" width="101" height="97" filterUnits="userSpaceOnUse" color-interpolation-filters="sRGB">
<feFlood flood-opacity="0" result="BackgroundImageFix"/>
<feGaussianBlur in="BackgroundImageFix" stdDeviation="15"/>
<feComposite in2="SourceAlpha" operator="in" result="effect1_backgroundBlur_575_267"/>
<feBlend mode="normal" in="SourceGraphic" in2="effect1_backgroundBlur_575_267" result="shape"/>
</filter>
<clipPath id="clip0_575_267">
<rect width="16" height="16" fill="white" transform="translate(12.5 10.5)"/>
</clipPath>
</defs>
</svg>
