<svg width="41" height="37" viewBox="0 0 41 37" fill="none" xmlns="http://www.w3.org/2000/svg">
<g filter="url(#filter0_b_575_276)">
<rect width="41" height="37" rx="15" fill="#F24497" fill-opacity="0.2"/>
<g clip-path="url(#clip0_575_276)">
<path d="M24.2075 21.7376C24.3637 20.927 25.1091 20.4037 25.872 20.5694C26.6352 20.7357 27.1272 21.5275 26.9711 22.3385C26.7929 23.2649 26.3922 24.1042 25.8336 24.7893C25.7066 24.9447 25.5703 25.0918 25.4275 25.2312C25.4223 25.237 25.4165 25.2425 25.411 25.2479C25.402 25.2567 25.3938 25.2658 25.3846 25.2746C24.061 26.625 23.098 27.159 21.9868 27.5C19.0118 28.413 15.4072 26.4 14.3757 22.8421C13.9431 21.3499 14.0028 18.86 14.0028 18.86V11.0384C14.0028 10.3919 14.4962 9.86797 15.1045 9.86797C15.7133 9.86797 16.2066 10.3919 16.2066 11.0384V14.6892C16.3121 13.8825 16.4635 13.1196 16.6464 12.4045C17.0107 10.9815 17.5003 9.74541 18.0012 8.71137C18.3129 8.06742 19.0569 7.81414 19.6632 8.14583C20.2692 8.4771 20.5075 9.26776 20.1958 9.91176C19.7618 10.8082 19.3406 11.8733 19.0281 13.0933C18.9282 13.4845 18.8406 13.8924 18.7661 14.3149C19.0051 13.8355 19.2664 13.3535 19.5479 12.873C20.434 11.3617 21.5189 9.86543 22.7532 8.54243C23.2675 7.99113 24.1045 7.98748 24.6229 8.53406C25.1417 9.08065 25.1448 9.97089 24.6305 10.5215C23.8233 11.3859 23.0728 12.3571 22.4167 13.3546C21.9567 14.0537 21.5447 14.766 21.1886 15.4624C21.4972 15.4048 21.8141 15.3738 22.1362 15.3738C22.9409 15.3734 23.7124 15.5613 24.4028 15.8984C25.0936 16.2352 25.7051 16.7198 26.2026 17.3141C26.688 17.8942 26.639 18.7823 26.0934 19.2979C25.5479 19.8134 24.7122 19.7616 24.2267 19.1822C23.9699 18.875 23.6537 18.625 23.3 18.4528C22.9461 18.2803 22.5557 18.1843 22.1362 18.1839C21.8437 18.1839 21.5659 18.2313 21.3039 18.3174C21.0423 18.4043 20.7968 18.5305 20.5733 18.6911C20.1267 19.0114 19.7991 19.5872 19.689 19.9622C19.5406 20.4665 19.5348 21.3202 19.7109 21.8121C19.8492 22.1981 20.035 22.54 20.2849 22.8421C20.5356 23.1438 20.8552 23.3784 21.2147 23.5167C21.4546 23.6087 21.7121 23.6594 21.9868 23.6594C22.4026 23.659 22.7813 23.5441 23.1143 23.3412C23.4464 23.1387 23.7275 22.8461 23.9263 22.4984C24.0588 22.2667 24.155 22.0113 24.2075 21.7376Z" fill="#F24497"/>
</g>
</g>
<defs>
<filter id="filter0_b_575_276" x="-30" y="-30" width="101" height="97" filterUnits="userSpaceOnUse" color-interpolation-filters="sRGB">
<feFlood flood-opacity="0" result="BackgroundImageFix"/>
<feGaussianBlur in="BackgroundImageFix" stdDeviation="15"/>
<feComposite in2="SourceAlpha" operator="in" result="effect1_backgroundBlur_575_276"/>
<feBlend mode="normal" in="SourceGraphic" in2="effect1_backgroundBlur_575_276" result="shape"/>
</filter>
<clipPath id="clip0_575_276">
<rect width="20" height="21" fill="white" transform="translate(10.5 8)"/>
</clipPath>
</defs>
</svg>
