<svg width="21" height="21" viewBox="0 0 21 21" fill="none" xmlns="http://www.w3.org/2000/svg">
<g id="refresh-reverse-svgrepo-com 1">
<path id="Vector" d="M5.56388 6.83199L6.95863 6.40499C7.06854 6.37138 7.18399 6.35975 7.2984 6.37076C7.4128 6.38177 7.52392 6.4152 7.6254 6.46915C7.72688 6.5231 7.81675 6.59651 7.88986 6.68519C7.96297 6.77387 8.0179 6.87609 8.05151 6.98599C8.08512 7.0959 8.09675 7.21135 8.08574 7.32576C8.07474 7.44016 8.0413 7.55128 7.98735 7.65276C7.9334 7.75424 7.85999 7.84411 7.77131 7.91722C7.68263 7.99033 7.58042 8.04526 7.47051 8.07887L4.12363 9.10262C4.01367 9.13624 3.89816 9.14785 3.7837 9.1368C3.66924 9.12575 3.55809 9.09224 3.45659 9.0382C3.35509 8.98416 3.26524 8.91065 3.19217 8.82186C3.11911 8.73307 3.06426 8.63075 3.03076 8.52074L2.00701 5.17387C1.9734 5.06396 1.96177 4.94851 1.97277 4.83411C1.98378 4.7197 2.01722 4.60859 2.07117 4.5071C2.12512 4.40562 2.19853 4.31576 2.28721 4.24265C2.37589 4.16953 2.4781 4.11461 2.58801 4.081C2.80998 4.01312 3.04982 4.03619 3.25478 4.14515C3.45973 4.25411 3.613 4.44003 3.68088 4.66199L4.06588 5.92287C6.17288 2.67749 10.3528 1.28187 14.0636 2.80262C15.1734 3.2575 16.17 3.95005 16.9833 4.83153C17.7966 5.71302 18.4069 6.76203 18.7711 7.90474C18.8085 8.01482 18.8235 8.13124 18.8154 8.24719C18.8072 8.36315 18.776 8.47631 18.7237 8.58008C18.6713 8.68386 18.5988 8.77615 18.5103 8.85158C18.4219 8.92701 18.3193 8.98407 18.2086 9.01941C18.0978 9.05475 17.9811 9.06768 17.8654 9.05743C17.7496 9.04718 17.637 9.01396 17.5342 8.95972C17.4314 8.90547 17.3404 8.83129 17.2666 8.7415C17.1928 8.6517 17.1376 8.5481 17.1043 8.43674C16.7346 7.27594 16.0442 6.24337 15.1127 5.45824C14.1812 4.67312 13.0466 4.16746 11.84 3.99966C10.6333 3.83186 9.40386 4.00876 8.29349 4.50993C7.18311 5.0111 6.23625 5.81611 5.56388 6.83199ZM16.35 14.0026L14.7969 14.3902C14.6844 14.4211 14.5669 14.4291 14.4513 14.4139C14.3357 14.3987 14.2243 14.3605 14.1236 14.3017C14.023 14.2428 13.9351 14.1644 13.8652 14.071C13.7953 13.9777 13.7447 13.8713 13.7165 13.7582C13.6883 13.6451 13.6829 13.5274 13.7008 13.4122C13.7187 13.297 13.7595 13.1865 13.8207 13.0872C13.8819 12.9879 13.9623 12.9019 14.0572 12.8342C14.1521 12.7664 14.2596 12.7183 14.3734 12.6927L17.561 11.8974C17.7271 11.8184 17.9139 11.7939 18.0948 11.8274C18.269 11.8503 18.4323 11.9251 18.5634 12.0422C18.6945 12.1593 18.7873 12.3131 18.8298 12.4836L19.6768 15.8786C19.7269 16.1016 19.6879 16.3354 19.5679 16.5299C19.448 16.7245 19.2567 16.8644 19.0349 16.9197C18.8132 16.975 18.5785 16.9414 18.3813 16.826C18.184 16.7106 18.0397 16.5225 17.9793 16.3021L17.6905 15.1454C16.848 16.3577 15.6942 17.3205 14.3505 17.9321C13.0068 18.5437 11.523 18.7816 10.0554 18.6208C8.58784 18.4599 7.19083 17.9062 6.01154 17.018C4.83225 16.1298 3.91434 14.94 3.35451 13.5739L3.12701 13.0191C3.08346 12.9128 3.06128 12.7989 3.06174 12.684C3.06221 12.5691 3.0853 12.4554 3.1297 12.3494C3.17411 12.2434 3.23895 12.1472 3.32054 12.0662C3.40212 11.9853 3.49885 11.9212 3.6052 11.8777C3.81997 11.7897 4.06089 11.7907 4.27495 11.8804C4.38094 11.9248 4.47715 11.9896 4.55808 12.0712C4.63901 12.1528 4.70308 12.2495 4.74663 12.3559L4.97413 12.9097C5.42016 13.9981 6.15494 14.944 7.09917 15.6453C8.0434 16.3466 9.16123 16.7768 10.332 16.8894C11.5028 17.0019 12.6821 16.7926 13.7427 16.284C14.8032 15.7755 15.7048 14.986 16.35 14.0026Z" fill="#27AC5B"/>
</g>
</svg>
