<svg width="12" height="11" viewBox="0 0 12 11" fill="none" xmlns="http://www.w3.org/2000/svg">
<path d="M7.97103 0.228912C7.97103 0.228912 8.55437 0.566608 9.72104 1.242C9.72104 1.242 9.0101 2.36173 7.58821 4.60119C7.58821 4.60119 8.87034 4.56562 11.4346 4.49453C11.4346 4.49453 11.4346 5.12254 11.4346 6.37852C11.4346 6.37852 10.1646 6.35483 7.62469 6.30744C7.62469 6.30744 8.3113 7.39754 9.68458 9.57774C9.68458 9.57774 9.10125 9.9095 7.93458 10.573C7.93458 10.573 7.27223 9.46519 5.94759 7.24942C5.94759 7.24942 5.29135 8.3573 3.97885 10.573C3.97885 10.573 3.37727 10.2294 2.17415 9.5422C2.17415 9.5422 2.88509 8.46393 4.30695 6.30744C4.30695 6.30744 3.00055 6.33112 0.387695 6.37852C0.387695 6.37852 0.387695 5.75052 0.387695 4.49453C0.387695 4.49453 1.69413 4.53008 4.30695 4.60119C4.30695 4.60119 3.60818 3.48144 2.21061 1.242C2.21061 1.242 2.82431 0.904304 4.05175 0.228912C4.05175 0.228912 4.70799 1.31902 6.0205 3.49923C6.0205 3.49923 6.67069 2.40913 7.97103 0.228912Z" fill="#27AC5B"/>
</svg>
