<svg width="19" height="19" viewBox="0 0 19 19" fill="none" xmlns="http://www.w3.org/2000/svg">
<path d="M3.76102 2.65981C3.59824 2.60682 3.4332 2.55983 3.26715 2.51538C3.24669 2.50986 3.22644 2.50383 3.20619 2.49781C3.18013 2.49004 3.15405 2.48228 3.1276 2.47564L3.11263 2.47129C5.27874 0.496507 8.20871 -0.367723 11.1387 0.145318L11.1407 0.147042C11.694 1.65124 11.8024 3.26203 11.4681 4.81865C10.3776 5.37805 9.10305 5.45946 7.95914 5.04894C7.55718 4.90466 7.20669 4.65146 6.87813 4.37876L6.86736 4.36985C6.83269 4.34115 6.79709 4.31386 6.76149 4.28658C6.73951 4.26973 6.7175 4.25286 6.69575 4.23568C6.58008 4.14441 6.46391 4.05404 6.3445 3.96849C6.29426 3.93247 6.24307 3.8981 6.19185 3.86371L6.13193 3.82333C6.02135 3.74849 5.90998 3.675 5.79649 3.60496C5.71954 3.55752 5.64152 3.51206 5.56338 3.46697C5.45087 3.40192 5.33746 3.33924 5.2224 3.27899C5.142 3.23671 5.06135 3.19553 4.97988 3.15561C4.86171 3.098 4.74197 3.04375 4.62145 2.99095L4.57256 2.96951C4.5084 2.94133 4.44425 2.91315 4.37919 2.88689C4.2498 2.83445 4.11853 2.78682 3.98677 2.74019C3.96152 2.73121 3.93637 2.72201 3.91121 2.71281C3.86141 2.6946 3.8116 2.67638 3.76102 2.65981Z" fill="#27AC5B"/>
<path d="M0.832725 10.8116C0.944598 10.7177 1.0582 10.6261 1.17416 10.5378C1.23349 10.4924 1.29311 10.4477 1.35345 10.4039C1.47404 10.3162 1.59689 10.2322 1.72147 10.1505C1.74019 10.1382 1.75881 10.1257 1.77744 10.1133C1.81296 10.0895 1.84879 10.0655 1.88498 10.0428C2.06482 9.92987 2.24728 9.8215 2.43429 9.72099L2.44061 9.71782L2.44581 9.71524C2.62864 9.61722 2.81556 9.52643 3.00492 9.44042C3.04532 9.42211 3.08627 9.40485 3.12723 9.3876C3.149 9.37842 3.17077 9.36925 3.19247 9.35991C3.32722 9.30215 3.46295 9.24688 3.60059 9.19525C3.67292 9.16816 3.74541 9.14203 3.81854 9.1166C3.84211 9.10843 3.86545 9.09974 3.88878 9.09105C3.91897 9.07979 3.94916 9.06854 3.97987 9.05845C3.99294 8.87724 4.01435 8.70421 4.0442 8.53584C4.28249 7.19396 5.00473 5.99844 6.06299 5.16216C5.9244 5.05077 5.78405 4.94189 5.63914 4.83982L5.63132 4.83466L5.62309 4.82922C5.47148 4.72289 5.31623 4.62246 5.15814 4.52664C5.12504 4.5065 5.09127 4.48755 5.05748 4.46858C5.0385 4.45792 5.0195 4.44726 5.00062 4.43639C4.88705 4.37078 4.77281 4.30665 4.6562 4.2465C4.60485 4.21991 4.55276 4.19475 4.50065 4.16957L4.46558 4.15261C4.35587 4.09943 4.24516 4.04818 4.13311 3.99982C4.06571 3.9707 3.99793 3.94248 3.92978 3.91517C3.81664 3.86981 3.70231 3.82745 3.58717 3.78699L3.55099 3.77424C3.49566 3.75474 3.44034 3.73523 3.38447 3.71713C3.25934 3.67666 3.13259 3.64074 3.00538 3.60617C2.98271 3.60001 2.96015 3.59357 2.9376 3.58712C2.90101 3.57666 2.86443 3.56621 2.82745 3.557C2.64016 3.51046 2.45116 3.46882 2.25989 3.4348C2.24946 3.43302 2.239 3.43155 2.22856 3.43008C2.21885 3.42871 2.20912 3.42734 2.19947 3.42573C1.14531 4.69041 0.438207 6.2105 0.148761 7.84155C-0.0631966 9.03634 -0.0484972 10.2272 0.19186 11.3949C0.193707 11.393 0.195629 11.3913 0.197547 11.3896L0.202748 11.3847C0.215062 11.3723 0.227838 11.3605 0.240615 11.3486C0.251175 11.3388 0.261769 11.329 0.27207 11.3188C0.402275 11.1909 0.535474 11.0666 0.672213 10.9468C0.709184 10.9144 0.746959 10.883 0.784758 10.8516L0.832725 10.8116Z" fill="#27AC5B"/>
<path d="M18.1256 8.15479C18.0178 8.24597 17.9095 8.33606 17.798 8.42194C17.7407 8.46619 17.6822 8.50864 17.6237 8.55114L17.588 8.57702C17.4808 8.65523 17.3725 8.73177 17.262 8.80538C17.1876 8.8549 17.1124 8.90302 17.0365 8.9503C16.9251 9.0202 16.812 9.08736 16.6977 9.1526C16.6208 9.19636 16.5437 9.23994 16.4655 9.28147C16.3461 9.34518 16.2247 9.40505 16.1024 9.46351L16.046 9.49076C15.989 9.51832 15.9321 9.54588 15.8742 9.57182C15.7389 9.63233 15.6011 9.68747 15.463 9.74153C15.4378 9.75139 15.4129 9.76158 15.388 9.77177C15.3467 9.78866 15.3052 9.80562 15.2632 9.82095L15.2574 9.82299C14.7554 10.0064 14.2743 10.2556 13.8929 10.63C13.1028 11.4054 12.6245 12.4606 12.5747 13.585C13.7449 14.6467 15.1806 15.359 16.7466 15.6395L16.7489 15.6386C17.834 14.3607 18.5599 12.8186 18.8544 11.1597C19.0673 9.95916 19.046 8.72474 18.796 7.53813L18.7899 7.54399L18.7843 7.54937C18.7672 7.56688 18.7493 7.58362 18.7314 7.60035C18.7166 7.61423 18.7018 7.6281 18.6874 7.64241C18.5627 7.76585 18.4364 7.88694 18.3058 8.00297C18.2671 8.03729 18.2274 8.07015 18.1877 8.10301L18.1757 8.113C18.1589 8.12687 18.1422 8.14076 18.1256 8.15479Z" fill="#27AC5B"/>
<path d="M15.7263 16.5557C15.5427 16.5059 15.3607 16.4518 15.1811 16.3914C15.1371 16.3767 15.0936 16.3604 15.0502 16.3441C15.0243 16.3344 14.9984 16.3246 14.9725 16.3153C14.8358 16.2658 14.6997 16.2151 14.5656 16.1594C14.5037 16.1338 14.4426 16.1063 14.3815 16.079L14.334 16.0577C14.2108 16.0026 14.0884 15.946 13.9675 15.8857C13.8887 15.8463 13.8107 15.8055 13.7329 15.764C13.6164 15.7019 13.5014 15.637 13.3876 15.5701C13.3112 15.5252 13.2352 15.4801 13.1602 15.433C13.046 15.3614 12.9343 15.2862 12.8232 15.2097L12.7698 15.1732C12.7176 15.1376 12.6654 15.1019 12.6142 15.0646C12.4951 14.9779 12.3795 14.8864 12.2643 14.794C12.2427 14.7767 12.2209 14.7597 12.1991 14.7427C12.164 14.7154 12.1289 14.6881 12.0947 14.6594C12.0487 14.6207 12.0039 14.5804 11.9592 14.54C11.9388 14.5217 11.918 14.503 11.8975 14.4848C11.1455 14.8467 10.3263 15.0447 9.49607 15.0447C9.17459 15.0447 8.8524 15.0164 8.53274 14.9601C8.14694 14.8914 7.77107 14.776 7.40597 14.6251C7.17426 16.018 7.29453 17.4449 7.76691 18.7907C7.77005 18.7996 7.77344 18.8082 7.77683 18.8169C7.78004 18.8251 7.78326 18.8333 7.78625 18.8417C7.80475 18.8452 7.82319 18.8486 7.84168 18.8518C10.7442 19.3669 13.6598 18.5244 15.8266 16.5852L15.8197 16.5831L15.8119 16.5808C15.7966 16.5768 15.7816 16.5722 15.7665 16.5676C15.7533 16.5635 15.7397 16.5593 15.7263 16.5557Z" fill="#27AC5B"/>
<path d="M6.35336 17.8578C6.38983 18.0412 6.43303 18.2235 6.48049 18.4053C6.48422 18.4196 6.48747 18.434 6.49073 18.4485C6.49458 18.4655 6.49844 18.4826 6.50308 18.4996L6.5041 18.5041L6.50568 18.5109C3.74535 17.5925 1.52851 15.4346 0.546309 12.6658L0.546761 12.6635C1.57724 11.4547 2.9145 10.5756 4.41934 10.1006C5.45706 10.7687 6.16337 11.8366 6.37348 13.0305C6.44735 13.4501 6.39989 13.8791 6.32343 14.2981L6.31998 14.3173C6.312 14.3614 6.30571 14.4057 6.29942 14.45C6.29574 14.4759 6.29205 14.5019 6.28803 14.5278C6.26479 14.675 6.24295 14.8223 6.22685 14.9702C6.21992 15.0332 6.21497 15.0962 6.21001 15.1592L6.20517 15.22C6.19392 15.3557 6.18432 15.4913 6.17897 15.6272C6.17553 15.715 6.17417 15.8029 6.17306 15.8909C6.17163 16.023 6.17269 16.1551 6.17668 16.2871C6.17934 16.3758 6.1828 16.4643 6.18792 16.5531C6.19577 16.6862 6.20735 16.8192 6.22077 16.9522L6.22601 17.0049C6.23273 17.073 6.23946 17.1411 6.24821 17.2089C6.26643 17.3508 6.28992 17.4922 6.3146 17.6333C6.31923 17.6599 6.32358 17.6864 6.32793 17.713C6.33583 17.7613 6.34375 17.8097 6.35336 17.8578Z" fill="#27AC5B"/>
<path d="M12.4225 0.466483L12.4239 0.472474C12.4245 0.475226 12.4252 0.477998 12.426 0.480725C12.431 0.498456 12.4353 0.51632 12.4395 0.534187C12.4431 0.549197 12.4467 0.564312 12.4508 0.579249C12.4977 0.753254 12.54 0.927991 12.5769 1.10372C12.5875 1.15347 12.5966 1.20346 12.6057 1.25344L12.617 1.31483C12.6434 1.45618 12.6671 1.59789 12.687 1.74006C12.6977 1.81608 12.7076 1.89183 12.7164 1.96795C12.7332 2.11311 12.7457 2.25845 12.7558 2.40415C12.7574 2.42783 12.7592 2.45149 12.7611 2.47512C12.7644 2.5193 12.7678 2.56343 12.7698 2.60764C12.78 2.8183 12.7846 3.02923 12.7806 3.24026C12.7805 3.24449 12.7802 3.24875 12.7799 3.25302C12.7797 3.25733 12.7794 3.2617 12.7793 3.26602C12.7748 3.46942 12.7625 3.67273 12.7449 3.87587C12.741 3.92098 12.7358 3.96598 12.7306 4.01102C12.728 4.03371 12.7254 4.05673 12.7229 4.07945C12.707 4.22597 12.6884 4.37229 12.6657 4.51837C12.6541 4.59256 12.6415 4.66663 12.6282 4.74053C12.6237 4.76525 12.6198 4.78999 12.6159 4.81471C12.6106 4.84816 12.6054 4.88165 12.5988 4.91502C13.8986 5.79286 14.7649 7.18544 14.9842 8.72688C14.9959 8.72237 15.0073 8.71752 15.0187 8.71268C15.0298 8.70798 15.0409 8.70326 15.0521 8.69889C15.3332 8.5888 15.6073 8.46363 15.8738 8.32459C15.888 8.31721 15.9023 8.31021 15.9167 8.30321C15.9351 8.29421 15.9535 8.28523 15.9715 8.27545C16.2432 8.12926 16.5045 7.9653 16.7583 7.78997C16.8057 7.75722 16.8537 7.72405 16.9006 7.69016C17.1479 7.5117 17.3864 7.32052 17.6137 7.11522C17.6364 7.09473 17.6586 7.0735 17.6807 7.05227C17.695 7.03858 17.7093 7.02482 17.7237 7.01133C17.9582 6.79191 18.1845 6.56226 18.3947 6.31506L18.4012 6.30734C18.4069 6.3006 18.4123 6.29374 18.4177 6.28688C18.4229 6.28036 18.428 6.27383 18.4334 6.26743C17.4298 3.50508 15.1938 1.36337 12.4225 0.466483Z" fill="#27AC5B"/>
<path d="M10.6143 8.07032C10.6195 7.98745 10.7212 7.85614 10.7974 7.84074C11.2309 7.75357 11.6672 7.68011 12.1036 7.60665C12.2383 7.58397 12.3734 7.56122 12.5081 7.53813L12.5156 7.55593L12.5325 7.59602C12.5026 7.6298 12.4734 7.66436 12.4441 7.69893C12.3805 7.7742 12.3169 7.8495 12.2457 7.91671C11.9716 8.17549 11.6804 8.3806 11.262 8.28885C11.1858 8.27204 11.0459 8.37626 10.9922 8.4606C10.9001 8.60488 10.8253 8.76016 10.7505 8.91538C10.7205 8.97767 10.6904 9.04011 10.6592 9.10167C10.6056 8.74692 10.5936 8.4075 10.6143 8.07032Z" fill="#27AC5B"/>
<path d="M9.70535 11.4555C9.70554 11.4469 9.70567 11.4384 9.70554 11.4299C9.69185 10.734 9.74481 10.6248 10.2029 10.3774C10.2223 10.3668 10.2435 10.3557 10.266 10.3439C10.3614 10.2937 10.4823 10.2301 10.6117 10.142H8.40437C8.48579 10.1959 8.56065 10.2466 8.63142 10.2946C8.7816 10.3963 8.91339 10.4855 9.05005 10.5664C9.22283 10.6687 9.29592 10.8012 9.29339 11.0058C9.29181 11.1379 9.29438 11.2448 9.2965 11.3331C9.30095 11.5177 9.30342 11.6206 9.26185 11.7006C9.2095 11.8014 9.0873 11.8659 8.8112 12.0115C8.7565 12.0404 8.69574 12.0725 8.62829 12.1086C8.55632 12.1472 8.4847 12.1866 8.41308 12.226C8.20799 12.3387 8.0028 12.4516 7.78938 12.545C7.92348 12.6569 8.16409 12.7454 8.27306 12.6841C8.55165 12.5277 8.84098 12.3906 9.13027 12.2535C9.22533 12.2085 9.32048 12.1634 9.41515 12.1176C9.43363 12.1087 9.45621 12.1083 9.487 12.1078C9.504 12.1076 9.5235 12.1073 9.5462 12.1054C9.55914 12.1094 9.57455 12.1133 9.59148 12.1176C9.63475 12.1285 9.68797 12.1419 9.73546 12.1663C9.91675 12.2597 10.0966 12.3558 10.2764 12.452C10.4196 12.5286 10.5629 12.6052 10.7068 12.6803C10.8766 12.7687 11.2568 12.5628 11.2177 12.5431C10.9606 12.4128 10.7062 12.2774 10.4518 12.142C10.2913 12.0566 10.1306 11.9711 9.96945 11.887C9.79226 11.7946 9.70028 11.6564 9.70535 11.4555Z" fill="#27AC5B"/>
<path d="M8.26248 8.9145C8.1878 8.75957 8.11311 8.60461 8.02127 8.4606C7.96747 8.37626 7.82766 8.27204 7.7514 8.28885C7.33301 8.3806 7.04184 8.17536 6.76768 7.91665C6.69674 7.84966 6.63335 7.77464 6.56996 7.69963C6.54055 7.66483 6.51113 7.63002 6.48096 7.59602L6.50533 7.53813C6.64029 7.56127 6.77534 7.58401 6.91038 7.60674C7.34652 7.68017 7.78265 7.7536 8.21606 7.84074C8.29219 7.85614 8.3939 7.98745 8.39903 8.07032C8.4198 8.4075 8.40773 8.74692 8.35418 9.10167C8.32286 9.03977 8.29267 8.97713 8.26248 8.9145Z" fill="#27AC5B"/>
</svg>
