<svg width="21" height="21" viewBox="0 0 21 21" fill="none" xmlns="http://www.w3.org/2000/svg">
<g id="time-svgrepo-com (4) 1">
<path id="Vector" d="M17.375 10.5C17.375 14.297 14.297 17.375 10.5 17.375C6.70304 17.375 3.625 14.297 3.625 10.5C3.625 6.70304 6.70304 3.625 10.5 3.625C14.297 3.625 17.375 6.70304 17.375 10.5Z" stroke="#27AC5B" stroke-width="2"/>
<path id="Vector_2" fill-rule="evenodd" clip-rule="evenodd" d="M11.375 6.6875C11.375 6.20425 10.9833 5.8125 10.5 5.8125C10.0167 5.8125 9.625 6.20425 9.625 6.6875V11.2812C9.625 11.8854 10.1147 12.375 10.7188 12.375H13.5625C14.0458 12.375 14.4375 11.9833 14.4375 11.5C14.4375 11.0167 14.0458 10.625 13.5625 10.625H11.375V6.6875Z" fill="#27AC5B"/>
</g>
</svg>
