<svg width="17" height="17" viewBox="0 0 17 17" fill="none" xmlns="http://www.w3.org/2000/svg">
<g id="tire-svgrepo-com 1" clip-path="url(#clip0_1918_130)">
<g id="Group">
<path id="Vector" d="M8.5001 0C3.80548 0 0 3.80551 0 8.50013C0 13.1945 3.80548 17 8.5001 17C13.1945 17 17 13.1945 17 8.50013C16.9999 3.80551 13.1945 0 8.5001 0ZM8.5001 13.9181C5.50757 13.9181 3.08185 11.4927 3.08185 8.50013C3.08185 5.5076 5.50757 3.08191 8.5001 3.08191C11.4924 3.08191 13.9181 5.50764 13.9181 8.50017C13.9181 11.4927 11.4924 13.9181 8.5001 13.9181Z" fill="#27AC5B"/>
<path id="Vector_2" d="M8.50015 9.02395C8.78962 9.02395 9.02396 8.7896 9.02396 8.50013C9.02396 8.21067 8.78962 7.97606 8.50015 7.97606C8.21045 7.97606 7.97607 8.21067 7.97607 8.50013C7.97604 8.7896 8.21045 9.02395 8.50015 9.02395Z" fill="#27AC5B"/>
<path id="Vector_3" d="M5.00461 6.52939C5.0414 6.62748 5.12065 6.70335 5.22043 6.73565L7.08774 7.3429C7.26169 7.39882 7.45221 7.36903 7.60003 7.26169C7.74758 7.15378 7.83551 6.98209 7.83551 6.7994V4.8371C7.83551 4.73257 7.78749 4.63336 7.70512 4.56875C7.62307 4.50327 7.51573 4.47967 7.41399 4.50327C7.41399 4.50327 7.44182 4.48222 7.25296 4.54152C6.37171 4.81943 5.61661 5.38289 5.09814 6.12418C4.99136 6.27649 5.0324 6.23292 5.0324 6.23292C4.97874 6.32201 4.96865 6.43105 5.00461 6.52939Z" fill="#27AC5B"/>
<path id="Vector_4" d="M7.0441 8.97364C6.98763 8.79939 6.85129 8.66283 6.67738 8.60691L4.81086 8.00049C4.71139 7.96818 4.60265 7.98336 4.51552 8.04093C4.4284 8.0991 4.37248 8.1938 4.36348 8.29832C4.36348 8.29832 4.35226 8.26519 4.35027 8.46301C4.34184 9.38699 4.64478 10.2787 5.18941 11.0014C5.30124 11.1498 5.27202 11.0972 5.27202 11.0972C5.34085 11.1762 5.44146 11.2195 5.54545 11.2153C5.65024 11.211 5.74719 11.1593 5.80845 11.0745L6.96286 9.48533C7.0702 9.33785 7.10028 9.14703 7.0441 8.97364Z" fill="#27AC5B"/>
<path id="Vector_5" d="M8.96237 10.2666C8.85446 10.1191 8.68273 10.0314 8.50008 10.0314C8.31717 10.0314 8.14544 10.1191 8.03836 10.2666L6.88455 11.854C6.82329 11.9386 6.8036 12.0471 6.83226 12.1483C6.86008 12.2491 6.93286 12.3312 7.02981 12.372C7.02981 12.372 6.99442 12.3728 7.18242 12.4358C8.05861 12.7294 9.00029 12.7165 9.85543 12.4217C10.031 12.3613 9.97231 12.3728 9.97231 12.3728C10.069 12.3323 10.1415 12.2497 10.1693 12.1491C10.1974 12.048 10.1774 11.94 10.1162 11.8554L8.96237 10.2666Z" fill="#27AC5B"/>
<path id="Vector_6" d="M12.1904 7.99993L10.3228 8.60692C10.1492 8.66283 10.0123 8.79939 9.95637 8.97364C9.89962 9.14703 9.92967 9.33782 10.0376 9.48507L11.1906 11.0728C11.2524 11.1579 11.3494 11.2088 11.4542 11.2139C11.5587 11.2184 11.6593 11.1742 11.7276 11.095C11.7276 11.095 11.7175 11.1285 11.8352 10.9697C12.3852 10.227 12.6647 9.32686 12.6487 8.42284C12.6456 8.23736 12.6378 8.29693 12.6378 8.29693C12.6288 8.19241 12.5732 8.09771 12.4858 8.04011C12.3987 7.9828 12.2902 7.96732 12.1904 7.99993Z" fill="#27AC5B"/>
<path id="Vector_7" d="M9.40029 7.26172C9.54841 7.3688 9.73837 7.39885 9.91232 7.34294L11.7783 6.73569C11.878 6.70361 11.9573 6.62748 11.9941 6.52943C12.0306 6.43108 12.02 6.32174 11.9654 6.23213C11.9654 6.23213 11.9944 6.25178 11.8794 6.09105C11.3433 5.3382 10.5739 4.79473 9.70888 4.5303C9.53098 4.47635 9.58523 4.50165 9.58523 4.50165C9.48323 4.47804 9.37619 4.50218 9.29467 4.56739C9.21233 4.63174 9.16455 4.73095 9.16455 4.83521V6.79924C9.16455 6.98209 9.25251 7.15381 9.40029 7.26172Z" fill="#27AC5B"/>
</g>
</g>
<defs>
<clipPath id="clip0_1918_130">
<rect width="17" height="17" fill="white"/>
</clipPath>
</defs>
</svg>
