<svg width="23" height="23" viewBox="0 0 23 23" fill="none" xmlns="http://www.w3.org/2000/svg">
<path d="M22 11.4022L21.8485 11.0176L20.7996 10.3481L19.469 10.3584L18.7425 9.42693L17.9053 9.7887L17.239 9.51632L16.7767 9.68263L15.9084 8.05868L15.2926 8.00257L14.877 6.27052L13.2142 6.00024L12.8899 6.44518L11.501 6.42647L11.0542 7.12307L11.0095 7.9901L10.5744 7.51391L9.6867 7.67609L9.45554 7.19165L7.83164 7.33925L5.57062 6.30591L4.30028 6.23101L3.34847 7.14379L3.72139 8.55357L1.8003 10.4042L1.9363 11.4168L1.5711 11.2484L1 12.1009L1.93237 13.3505L3.70588 13.7123L4.09045 14.1844L5.61918 13.81L5.80761 13.4109L7.26054 13.0386L8.81257 14.0409L9.07483 14.9412L9.58375 15.3654L9.5566 16.0806L9.9606 16.9082L9.07286 17.1744L8.74268 17.8315L7.84526 18.6901L8.45131 19.2786L10.1879 18.2431L11.0348 17.085L11.5185 16.7523L12.4664 16.5942L12.3246 16.9706L12.2799 17.0434L12.8199 17.7233L14.5001 17.7316L14.5836 18.1288L13.1365 18.9937L14.4321 19.6841L14.4439 20.1416L14.2069 20.6883L14.6516 21.0002L15.3995 20.7133L17.0254 19.5884L18.0393 19.6383L18.1908 18.948L17.6314 18.9085L16.8233 19.2495L16.2076 18.451L14.8768 17.557L16.5067 17.4343L16.5242 17.4447L17.2624 16.6649L19.2631 15.7313L20.0284 15.6565L20.1313 14.6896L20.9142 14.1531L21.7786 14.1219L21.9864 13.2611L21.6115 12.1092L22 11.4022Z" fill="#27AC5B"/>
</svg>
