<svg width="216" height="57" viewBox="0 0 216 57" fill="none" xmlns="http://www.w3.org/2000/svg">
<g clip-path="url(#clip0_1897_440)">
<path d="M154.665 20.135C154.356 20.534 153.851 20.7333 153.149 20.7333H151.39L152.037 17.5161H153.817C154.693 17.5161 155.13 17.9773 155.13 18.8979C155.13 19.3246 154.975 19.7368 154.665 20.135ZM157.709 21.2695C158.241 20.4443 158.507 19.5924 158.507 18.7122C158.507 17.4751 158.173 16.4577 157.507 15.6607C156.839 14.8635 155.798 14.4646 154.383 14.4646H149.268L148.034 20.7333H145.418L147.488 23.5018L146.376 29.1466H149.732L150.844 23.5789H152.118L153.635 29.1466H157.314L155.393 23.1461C156.404 22.7199 157.177 22.0944 157.709 21.2695ZM121.509 21.8056C121.252 23.1114 121.125 24.0737 121.125 24.6921C121.125 25.1873 121.256 25.572 121.52 25.8471C121.781 26.1221 122.136 26.2593 122.58 26.2593C123.497 26.2593 124.171 25.7026 124.602 24.5894H128.06C127.547 26.1565 126.793 27.3291 125.795 28.1054C124.798 28.8822 123.638 29.2705 122.318 29.2705C120.875 29.2705 119.754 28.8508 118.952 28.0119C118.149 27.1739 117.748 26.1638 117.748 24.9812C117.748 24.17 117.876 23.1114 118.132 21.8056C118.335 20.7475 118.503 19.9495 118.638 19.4133C118.773 18.8774 118.982 18.2934 119.265 17.6606C119.548 17.0284 119.892 16.4923 120.296 16.0523C121.348 14.9113 122.742 14.3408 124.482 14.3408C125.95 14.3408 127.069 14.7807 127.837 15.6607C128.605 16.5406 128.99 17.6606 128.99 19.0218H125.634C125.606 17.9086 125.141 17.3512 124.238 17.3512C123.685 17.3512 123.2 17.5645 122.783 17.9906C122.338 18.4446 121.914 19.7161 121.509 21.8056ZM110.39 21.8056C109.985 23.8538 109.574 25.1124 109.157 25.5795C108.752 26.0328 108.274 26.2593 107.721 26.2593C107.303 26.2593 106.963 26.1221 106.7 25.8471C106.437 25.572 106.306 25.1873 106.306 24.6921C106.306 24.0737 106.434 23.1114 106.69 21.8056C107.094 19.7572 107.505 18.4995 107.923 18.0316C108.328 17.5784 108.806 17.3512 109.359 17.3512C109.776 17.3512 110.117 17.489 110.379 17.7641C110.642 18.0389 110.774 18.4241 110.774 18.9183C110.774 19.5373 110.646 20.4994 110.39 21.8056ZM109.621 14.3408C107.909 14.3408 106.528 14.9113 105.477 16.0523C105.073 16.4923 104.729 17.0284 104.446 17.6606C104.162 18.2934 103.954 18.8774 103.818 19.4133C103.684 19.9495 103.516 20.7475 103.313 21.8056C103.057 23.1114 102.929 24.17 102.929 24.9812C102.929 26.1638 103.327 27.1739 104.122 28.0119C104.917 28.8508 106.029 29.2705 107.458 29.2705C109.17 29.2705 110.552 28.6999 111.603 27.5588C112.007 27.1187 112.35 26.5825 112.634 25.9503C112.917 25.3184 113.126 24.734 113.261 24.1979C113.395 23.6617 113.564 22.8643 113.766 21.8056C114.021 20.4994 114.15 19.4411 114.15 18.6302C114.15 17.448 113.753 16.4374 112.957 15.5985C112.162 14.7601 111.05 14.3408 109.621 14.3408ZM97.7181 14.4646H100.341L99.7554 17.4751H97.1253L97.1242 17.481H93.8301L93.2855 20.2385L99.2701 20.2044L98.6834 23.2151L92.6988 23.249L92.1329 26.1363H98.1777L97.5916 29.1466H88.1703L89.3356 23.2295L87.3101 20.2364H89.9249L90.4674 17.481L91.0602 14.4706L91.0615 14.4646H94.3556H97.7181ZM78.5468 26.1363H84.3897L83.8036 29.1466H74.584L76.8828 17.4735L74.8468 14.4646H77.4752H77.4766H80.8312L78.5468 26.1363ZM136.065 24.0533L138.249 19.7226L138.694 24.0533H136.065ZM137.844 14.4646L132.718 24.0584L132.719 24.0533H130.09L131.624 26.106L130 29.1466H133.578L134.69 26.8371H138.957L139.158 29.1466H142.575L140.453 14.4646H137.844Z" fill="#FAFAFA"/>
<path d="M53.1918 24.4109C52.8754 24.6839 52.5575 24.9536 52.2304 25.2107C52.0281 25.37 51.8209 25.5215 51.6142 25.6749C51.2994 25.909 50.9817 26.1382 50.6573 26.3585C50.439 26.5067 50.2182 26.6508 49.9958 26.7923C49.6687 27.0016 49.3367 27.2026 49.0013 27.3979C48.7756 27.5289 48.5495 27.6594 48.32 27.7837C47.9697 27.9744 47.6133 28.1536 47.2544 28.3286C47.0318 28.4377 46.8106 28.5496 46.5847 28.6528C46.1878 28.834 45.7834 28.9991 45.3779 29.1609C45.1817 29.2395 44.9893 29.325 44.7916 29.3986C44.7859 29.4007 44.7803 29.4028 44.7746 29.4047C43.3015 29.9537 41.8897 30.6999 40.7702 31.8206C38.4516 34.1417 37.048 37.3004 36.9019 40.6663C40.336 43.8447 44.5493 45.977 49.1449 46.8165C49.1472 46.8156 49.1495 46.8148 49.1518 46.814C52.336 42.9885 54.4664 38.3723 55.3304 33.4062C55.9554 29.8124 55.8927 26.1171 55.1592 22.5649C55.1481 22.5766 55.1361 22.5869 55.1249 22.5986C55.0327 22.6944 54.9337 22.7826 54.8403 22.8771C54.4746 23.2466 54.104 23.6091 53.7205 23.9565C53.5478 24.1129 53.368 24.2593 53.1918 24.4109Z" fill="#27AC5B"/>
<path d="M46.1508 49.5593C45.6121 49.4103 45.0781 49.2481 44.551 49.0675C44.3447 48.9969 44.1428 48.9147 43.9386 48.8395C43.5377 48.6913 43.1382 48.5398 42.7447 48.373C42.516 48.2762 42.2908 48.1712 42.0651 48.0685C41.7034 47.9034 41.3442 47.7339 40.9893 47.5536C40.7581 47.4357 40.5293 47.3135 40.3011 47.1894C39.959 47.0033 39.6215 46.8091 39.2876 46.6089C39.0634 46.4744 38.8405 46.3394 38.6203 46.1984C38.2853 45.9842 37.9573 45.759 37.6312 45.5301C37.4262 45.3862 37.2194 45.2453 37.0179 45.0957C36.6685 44.8361 36.3291 44.562 35.9912 44.2856C35.8259 44.1504 35.656 44.0219 35.4935 43.8826C35.2967 43.7139 35.1076 43.5345 34.9148 43.3599C32.7078 44.4434 30.3038 45.036 27.8674 45.036C26.924 45.036 25.9784 44.9513 25.0403 44.7828C23.9081 44.5771 22.8051 44.2317 21.7337 43.7799C21.0537 47.9495 21.4066 52.2211 22.7929 56.2499C22.8108 56.3014 22.8316 56.3509 22.8497 56.4023C22.904 56.4129 22.9581 56.423 23.0123 56.4328C31.5301 57.9746 40.0864 55.4525 46.4451 49.6475C46.4308 49.6434 46.4163 49.6381 46.4021 49.6343C46.3173 49.6121 46.2356 49.5824 46.1508 49.5593Z" fill="#27AC5B"/>
<path d="M19.0182 55.0963C18.8789 54.5519 18.7522 54.0064 18.6452 53.4573C18.6014 53.2341 18.5697 53.0093 18.5314 52.7853C18.459 52.3628 18.39 51.9395 18.3366 51.5149C18.3043 51.2593 18.2814 51.0026 18.256 50.7463C18.2167 50.3483 18.1827 49.9502 18.1596 49.5516C18.1446 49.2859 18.1345 49.021 18.1266 48.7555C18.1149 48.3602 18.1118 47.9648 18.116 47.5693C18.1193 47.3059 18.1233 47.0427 18.1334 46.7799C18.1491 46.373 18.1772 45.9671 18.2103 45.5611C18.2303 45.3116 18.247 45.0624 18.2739 44.8134C18.3211 44.3706 18.3852 43.9295 18.4534 43.4888C18.4854 43.2789 18.5101 43.0684 18.5472 42.8587C18.5503 42.8398 18.5538 42.8205 18.5573 42.8013C18.7817 41.547 18.921 40.2627 18.7042 39.0068C18.0876 35.4328 16.0148 32.2359 12.9695 30.2361C8.5533 31.6578 4.62892 34.2896 1.60484 37.9081C1.60431 37.9104 1.60405 37.9125 1.60352 37.915C4.48593 46.2035 10.9916 52.6633 19.0921 55.4123C19.0893 55.4012 19.0872 55.3899 19.0845 55.3784C19.0594 55.2847 19.0421 55.1898 19.0182 55.0963Z" fill="#27AC5B"/>
<path d="M2.44375 32.364C2.77206 32.0829 3.10543 31.8088 3.44573 31.5442C3.61987 31.4084 3.79482 31.2747 3.97191 31.1435C4.32577 30.8811 4.68631 30.6296 5.05191 30.3849C5.21194 30.2776 5.36958 30.1663 5.53173 30.0626C6.05951 29.7245 6.59497 29.4 7.14377 29.0992C7.15495 29.0931 7.1664 29.0879 7.17758 29.082C7.71413 28.7885 8.26267 28.5167 8.81836 28.2593C8.99996 28.1753 9.1853 28.0988 9.36876 28.0183C9.76419 27.8454 10.1625 27.6799 10.5665 27.5254C10.7787 27.4443 10.9914 27.366 11.2061 27.2899C11.3648 27.2339 11.5197 27.1694 11.6795 27.1158C11.7178 26.5734 11.7807 26.0554 11.8683 25.5514C12.5676 21.5344 14.6871 17.9556 17.7927 15.4522C17.386 15.1187 16.9741 14.7928 16.5489 14.4873C16.5337 14.4764 16.5172 14.4666 16.5018 14.4555C16.0569 14.1372 15.6012 13.8366 15.1373 13.5497C14.9856 13.4556 14.829 13.3701 14.675 13.2796C14.3418 13.0832 14.0065 12.8912 13.6643 12.7112C13.4798 12.6137 13.292 12.5226 13.1049 12.4301C12.7829 12.2709 12.458 12.1175 12.1292 11.9727C11.9314 11.8855 11.7325 11.8011 11.5325 11.7193C11.2005 11.5835 10.865 11.4567 10.5271 11.3356C10.3292 11.2647 10.1319 11.1925 9.93221 11.1265C9.56501 11.0053 9.19303 10.8978 8.81972 10.7943C8.6453 10.746 8.47301 10.6917 8.29754 10.6471C7.74794 10.5078 7.1933 10.3831 6.63198 10.2813C6.57288 10.271 6.51349 10.2642 6.45465 10.2542C3.36107 14.04 1.28598 18.5904 0.43656 23.473C-0.18546 27.0497 -0.142322 30.6145 0.56304 34.11C0.573425 34.0993 0.584609 34.0901 0.594994 34.0796C0.66103 34.0117 0.731594 33.9493 0.798429 33.8824C1.18053 33.4993 1.57143 33.1272 1.9727 32.7686C2.12714 32.6307 2.28636 32.4987 2.44375 32.364Z" fill="#27AC5B"/>
<path d="M9.58774 7.5292C10.075 7.66227 10.5594 7.80295 11.0371 7.96156C11.2605 8.03623 11.4788 8.12206 11.6996 8.20218C12.0862 8.34178 12.4715 8.48435 12.8512 8.64133C13.0906 8.73992 13.3257 8.84747 13.5621 8.95284C13.9158 9.11089 14.2672 9.27331 14.614 9.44576C14.8531 9.56525 15.0898 9.68855 15.3257 9.81511C15.6634 9.99545 15.9962 10.1831 16.3264 10.3778C16.5557 10.5128 16.7846 10.6489 17.0104 10.7909C17.3435 11.0006 17.6703 11.2205 17.9948 11.4446C18.2033 11.5888 18.4137 11.7292 18.6187 11.8791C18.9691 12.1352 19.31 12.4058 19.6495 12.679C19.8167 12.8137 19.9885 12.9416 20.1531 13.0806C20.1636 13.0896 20.174 13.0983 20.1847 13.1073C21.1489 13.9236 22.1775 14.6816 23.3571 15.1135C26.714 16.3424 30.4544 16.0987 33.6546 14.4241C34.6357 9.76433 34.3175 4.94238 32.6938 0.439534C32.6917 0.437633 32.69 0.436275 32.6879 0.434374C24.0895 -1.10143 15.491 1.48567 9.13428 7.39722C9.14919 7.40128 9.16331 7.40617 9.17822 7.41025C9.31614 7.44556 9.45035 7.49144 9.58774 7.5292Z" fill="#27AC5B"/>
<path d="M36.4556 1.396C36.4592 1.41012 36.4619 1.42451 36.4659 1.43863C36.4929 1.5364 36.5127 1.63552 36.5386 1.73356C36.6763 2.25445 36.8005 2.77753 36.9089 3.30358C36.9525 3.51352 36.9878 3.72482 37.0264 3.93555C37.1039 4.35869 37.1735 4.7829 37.2319 5.20847C37.2632 5.43605 37.2923 5.66282 37.3182 5.89069C37.3676 6.32521 37.4041 6.7603 37.4339 7.19645C37.4474 7.39987 37.4659 7.60247 37.475 7.8056C37.5047 8.43622 37.5184 9.06765 37.5064 9.69936C37.506 9.72489 37.5032 9.75068 37.5028 9.77648C37.4895 10.3854 37.4535 10.994 37.4019 11.6021C37.3843 11.8055 37.3588 12.0081 37.3373 12.2115C37.2906 12.6501 37.2359 13.0881 37.1695 13.5254C37.1354 13.7475 37.0984 13.9692 37.0592 14.1905C37.0285 14.3646 37.0066 14.539 36.9729 14.7128C40.7874 17.3406 43.3297 21.5094 43.9735 26.1237C44.0407 26.0971 44.1057 26.0665 44.1725 26.0399C44.9977 25.7104 45.802 25.3356 46.5839 24.9194C46.679 24.8689 46.7769 24.8244 46.8708 24.7723C47.6679 24.3347 48.435 23.8439 49.1796 23.319C49.3192 23.2207 49.4594 23.122 49.5973 23.0203C50.323 22.486 51.023 21.9137 51.6899 21.2992C51.7999 21.1982 51.9047 21.0912 52.0129 20.9882C52.7009 20.3313 53.3651 19.6439 53.9819 18.9038C53.9881 18.896 53.9942 18.8886 54.0009 18.8807C54.0335 18.8414 54.0632 18.8006 54.0956 18.7613C51.1504 10.4921 44.5883 4.08086 36.4556 1.396Z" fill="#27AC5B"/>
<path d="M31.6864 23.4708C31.4628 23.5169 31.1645 23.91 31.1492 24.1581C31.0883 25.1674 31.1237 26.1835 31.2811 27.2454C31.6001 26.6018 31.8793 25.9318 32.2582 25.3264C32.4157 25.0739 32.8264 24.7619 33.05 24.8122C34.2778 25.0869 35.1323 24.4729 35.9367 23.6982C36.2416 23.4046 36.4992 23.0596 36.7784 22.7382C36.7542 22.6807 36.7308 22.6231 36.7068 22.5649C35.0313 22.858 33.3519 23.1292 31.6864 23.4708Z" fill="#FAFAFA"/>
<path d="M28.4816 34.2919C28.4821 34.2661 28.4825 34.2405 28.4821 34.2152C28.4419 32.1318 28.5974 31.8049 29.9416 31.0643C30.24 30.9 30.6716 30.686 31.1414 30.3599H24.6636C25.4097 30.8639 25.9684 31.274 26.5585 31.6303C27.0656 31.9365 27.28 32.3331 27.2726 32.9455C27.2436 35.4153 27.6901 34.9512 25.3208 36.2469C24.5046 36.693 23.704 37.1758 22.8589 37.5533C23.2524 37.8881 23.9585 38.153 24.2783 37.9696C25.3646 37.3477 26.5065 36.8274 27.6299 36.2739C27.7141 36.2322 27.8273 36.2527 28.0145 36.2374C28.1496 36.28 28.376 36.3179 28.5699 36.4197C29.5257 36.9216 30.4676 37.4508 31.4206 37.9583C31.9189 38.223 33.0345 37.6065 32.9196 37.5474C31.6894 36.9116 30.4795 36.2345 29.2566 35.5834C28.7366 35.3068 28.4667 34.8931 28.4816 34.2919Z" fill="#FAFAFA"/>
<path d="M23.5393 25.3264C23.9178 25.9318 24.197 26.6018 24.5163 27.2454C24.6734 26.1835 24.7088 25.1674 24.6479 24.1581C24.6328 23.91 24.3344 23.5169 24.1109 23.4708C22.4452 23.1292 20.7658 22.858 19.0905 22.5649C19.0667 22.6231 19.043 22.6807 19.019 22.7382C19.2984 23.0594 19.5557 23.4044 19.8605 23.6981C20.665 24.4725 21.5195 25.0869 22.7473 24.8122C22.9711 24.7619 23.3814 25.0739 23.5393 25.3264Z" fill="#FAFAFA"/>
<path d="M77.2828 35.6341L76.2047 41.8893H74.9556L76.0337 35.6341H77.2828ZM80.8809 35.6341L77.9331 39.3073H76.3759L76.4186 38.1602H77.3899L79.2937 35.6341H80.8809ZM78.5108 41.8893L77.2786 39.0367L78.2582 38.1644L79.9398 41.8893H78.5108ZM87.1451 38.594L87.111 38.8949C87.0539 39.2958 86.947 39.6826 86.79 40.0548C86.6331 40.4272 86.4278 40.7595 86.174 41.0515C85.9201 41.3408 85.6179 41.5699 85.267 41.739C84.919 41.905 84.5239 41.9838 84.0819 41.9752C83.6598 41.9666 83.3019 41.875 83.0081 41.7003C82.7171 41.5227 82.486 41.2878 82.315 40.9957C82.1466 40.7036 82.034 40.3784 81.9769 40.0204C81.9199 39.6596 81.9142 39.2901 81.9599 38.9121L81.994 38.6157C82.0512 38.2146 82.158 37.8293 82.315 37.46C82.4746 37.0904 82.6815 36.7611 82.9354 36.4718C83.1919 36.1796 83.4944 35.9504 83.8422 35.7844C84.1931 35.6184 84.5868 35.5396 85.0232 35.5482C85.4453 35.5539 85.8019 35.6455 86.0927 35.823C86.3864 35.9979 86.6175 36.2312 86.7859 36.5233C86.9569 36.8127 87.071 37.1377 87.1279 37.4986C87.1851 37.8567 87.1908 38.2218 87.1451 38.594ZM85.8403 38.9121L85.883 38.6026C85.9059 38.4079 85.9173 38.1975 85.9173 37.9713C85.9201 37.7421 85.8944 37.5229 85.8403 37.3138C85.786 37.1019 85.6891 36.9286 85.5493 36.7939C85.4125 36.6566 85.2142 36.582 84.9546 36.5705C84.6752 36.5619 84.4356 36.6178 84.236 36.7381C84.0392 36.8584 83.8737 37.0218 83.7396 37.228C83.6085 37.4313 83.5043 37.6547 83.4274 37.8982C83.3531 38.1388 83.299 38.375 83.2647 38.607L83.2262 38.9163C83.2005 39.1082 83.1862 39.3201 83.1834 39.5521C83.1834 39.7813 83.2106 40.0018 83.2647 40.2138C83.319 40.4228 83.4159 40.5961 83.5558 40.7336C83.6954 40.8712 83.895 40.9456 84.1546 40.9571C84.4314 40.9657 84.6679 40.9083 84.8649 40.7853C85.0645 40.6621 85.2314 40.4988 85.3655 40.2954C85.4994 40.0892 85.6049 39.8658 85.682 39.6252C85.759 39.3817 85.8118 39.144 85.8403 38.9121ZM90.4659 35.6341H91.4841L92.2415 40.2138L94.5817 35.6341H95.6855L92.4255 41.8893H91.5697L90.4659 35.6341ZM89.8712 35.6341H90.9323L90.3462 40.1665L90.0424 41.8893H88.7931L89.8712 35.6341ZM95.1721 35.6341H96.2373L95.1592 41.8893H93.9015L94.2222 40.0592L95.1721 35.6341ZM100.748 36.1926L102.091 36.2012C102.447 36.2098 102.765 36.2813 103.045 36.416C103.325 36.5506 103.557 36.7352 103.742 36.9701C103.931 37.2021 104.066 37.4714 104.149 37.7779C104.231 38.0814 104.254 38.4079 104.217 38.7574C104.18 39.1355 104.08 39.4835 103.918 39.8014C103.758 40.1164 103.548 40.3886 103.289 40.6177C103.029 40.8467 102.734 41.0257 102.403 41.1546C102.072 41.2807 101.719 41.3436 101.342 41.3436L99.9988 41.3352C99.6394 41.3295 99.32 41.2621 99.0405 41.1332C98.7638 41.0043 98.5299 40.8268 98.3388 40.6005C98.1506 40.3742 98.0137 40.1107 97.9281 39.81C97.8426 39.5093 97.8182 39.1828 97.8554 38.8305C97.8925 38.4494 97.9908 38.0986 98.1506 37.7779C98.3131 37.4542 98.5241 37.175 98.7838 36.9401C99.0434 36.7023 99.3399 36.5191 99.6737 36.3902C100.007 36.2584 100.365 36.1926 100.748 36.1926ZM100.701 37.2193C100.384 37.2193 100.107 37.2909 99.8704 37.4341C99.6365 37.5774 99.4483 37.7706 99.3057 38.0141C99.166 38.2576 99.0761 38.5326 99.0361 38.8391C99.0133 39.0223 99.0133 39.2013 99.0361 39.376C99.0619 39.5479 99.1133 39.7025 99.1902 39.84C99.27 39.9747 99.38 40.0835 99.5196 40.1665C99.6594 40.2495 99.8333 40.2954 100.042 40.304L101.393 40.3169C101.701 40.3169 101.971 40.2482 102.202 40.1107C102.436 39.9731 102.623 39.787 102.763 39.5521C102.905 39.3173 102.997 39.051 103.036 38.7532C103.059 38.5698 103.061 38.3894 103.041 38.2117C103.021 38.0342 102.972 37.8739 102.895 37.7306C102.821 37.5845 102.716 37.467 102.579 37.3783C102.442 37.2895 102.268 37.2408 102.057 37.2322L100.701 37.2193ZM102.232 35.3762L101.064 42.1472H99.8577L101.026 35.3762H102.232ZM111.341 38.594L111.307 38.8949C111.25 39.2958 111.143 39.6826 110.986 40.0548C110.829 40.4272 110.624 40.7595 110.37 41.0515C110.116 41.3408 109.814 41.5699 109.463 41.739C109.115 41.905 108.72 41.9838 108.278 41.9752C107.856 41.9666 107.498 41.875 107.204 41.7003C106.913 41.5227 106.682 41.2878 106.511 40.9957C106.343 40.7036 106.23 40.3784 106.173 40.0204C106.116 39.6596 106.11 39.2901 106.156 38.9121L106.19 38.6157C106.247 38.2146 106.354 37.8293 106.511 37.46C106.671 37.0904 106.878 36.7611 107.132 36.4718C107.388 36.1796 107.691 35.9504 108.039 35.7844C108.389 35.6184 108.783 35.5396 109.219 35.5482C109.641 35.5539 109.998 35.6455 110.289 35.823C110.583 35.9979 110.814 36.2312 110.982 36.5233C111.153 36.8127 111.267 37.1377 111.324 37.4986C111.381 37.8567 111.387 38.2218 111.341 38.594ZM110.037 38.9121L110.079 38.6026C110.102 38.4079 110.113 38.1975 110.113 37.9713C110.116 37.7421 110.091 37.5229 110.037 37.3138C109.982 37.1019 109.885 36.9286 109.745 36.7939C109.609 36.6566 109.41 36.582 109.151 36.5705C108.871 36.5619 108.632 36.6178 108.432 36.7381C108.235 36.8584 108.07 37.0218 107.936 37.228C107.805 37.4313 107.701 37.6547 107.624 37.8982C107.549 38.1388 107.495 38.375 107.461 38.607L107.422 38.9163C107.397 39.1082 107.383 39.3201 107.38 39.5521C107.38 39.7813 107.407 40.0018 107.461 40.2138C107.515 40.4228 107.612 40.5961 107.752 40.7336C107.892 40.8712 108.091 40.9456 108.351 40.9571C108.628 40.9657 108.864 40.9083 109.061 40.7853C109.261 40.6621 109.428 40.4988 109.562 40.2954C109.696 40.0892 109.801 39.8658 109.878 39.6252C109.955 39.3817 110.008 39.144 110.037 38.9121ZM115.8 39.6638L114.187 39.6596L114.363 38.6543L115.843 38.6585C116.054 38.6585 116.248 38.6214 116.425 38.5468C116.602 38.4695 116.747 38.3578 116.861 38.2117C116.975 38.0657 117.048 37.8823 117.079 37.6618C117.108 37.4757 117.098 37.3081 117.049 37.1593C117.001 37.0103 116.915 36.89 116.793 36.7984C116.67 36.7067 116.512 36.6566 116.318 36.648L115.15 36.6436L114.243 41.8893H112.989L114.067 35.6341L116.356 35.6383C116.753 35.6469 117.106 35.7328 117.417 35.8961C117.728 36.0566 117.968 36.2855 118.136 36.5835C118.307 36.8785 118.376 37.235 118.341 37.6534C118.304 38.1086 118.163 38.4852 117.918 38.7832C117.673 39.081 117.363 39.3031 116.989 39.449C116.619 39.5923 116.222 39.6638 115.8 39.6638ZM123.579 35.6341L122.501 41.8893H121.247L122.33 35.6341H123.579ZM125.436 35.6341L125.26 36.6436H120.327L120.503 35.6341H125.436ZM131.054 38.1817L130.878 39.187H127.717L127.892 38.1817H131.054ZM128.709 35.6341L127.627 41.8893H126.373L127.452 35.6341H128.709ZM132.38 35.6341L131.298 41.8893H130.053L131.131 35.6341H132.38ZM137.121 36.7683L134.614 41.8893H133.237L136.565 35.6341H137.447L137.121 36.7683ZM137.618 41.8893L136.856 36.635L136.903 35.6341H137.729L138.905 41.8893H137.618ZM137.934 39.5607L137.759 40.5703H134.554L134.73 39.5607H137.934ZM149.8 38.594L149.765 38.8949C149.708 39.2958 149.601 39.6826 149.445 40.0548C149.288 40.4272 149.082 40.7595 148.829 41.0515C148.575 41.3408 148.272 41.5699 147.921 41.739C147.573 41.905 147.178 41.9838 146.736 41.9752C146.314 41.9666 145.956 41.875 145.663 41.7003C145.372 41.5227 145.141 41.2878 144.969 40.9957C144.801 40.7036 144.689 40.3784 144.631 40.0204C144.574 39.6596 144.569 39.2901 144.614 38.9121L144.649 38.6157C144.706 38.2146 144.813 37.8293 144.969 37.46C145.129 37.0904 145.336 36.7611 145.59 36.4718C145.846 36.1796 146.149 35.9504 146.497 35.7844C146.848 35.6184 147.241 35.5396 147.678 35.5482C148.1 35.5539 148.456 35.6455 148.747 35.823C149.041 35.9979 149.272 36.2312 149.44 36.5233C149.611 36.8127 149.725 37.1377 149.782 37.4986C149.84 37.8567 149.845 38.2218 149.8 38.594ZM148.495 38.9121L148.537 38.6026C148.56 38.4079 148.572 38.1975 148.572 37.9713C148.575 37.7421 148.549 37.5229 148.495 37.3138C148.441 37.1019 148.344 36.9286 148.204 36.7939C148.067 36.6566 147.869 36.582 147.609 36.5705C147.33 36.5619 147.09 36.6178 146.89 36.7381C146.694 36.8584 146.528 37.0218 146.394 37.228C146.263 37.4313 146.159 37.6547 146.082 37.8982C146.008 38.1388 145.953 38.375 145.919 38.607L145.881 38.9163C145.855 39.1082 145.841 39.3201 145.838 39.5521C145.838 39.7813 145.865 40.0018 145.919 40.2138C145.973 40.4228 146.07 40.5961 146.21 40.7336C146.35 40.8712 146.549 40.9456 146.809 40.9571C147.086 40.9657 147.322 40.9083 147.519 40.7853C147.719 40.6621 147.886 40.4988 148.02 40.2954C148.154 40.0892 148.259 39.8658 148.337 39.6252C148.413 39.3817 148.466 39.144 148.495 38.9121ZM154.258 39.6638L152.645 39.6596L152.821 38.6543L154.301 38.6585C154.512 38.6585 154.706 38.6214 154.883 38.5468C155.06 38.4695 155.205 38.3578 155.319 38.2117C155.433 38.0657 155.506 37.8823 155.538 37.6618C155.566 37.4757 155.556 37.3081 155.508 37.1593C155.459 37.0103 155.374 36.89 155.251 36.7984C155.128 36.7067 154.97 36.6566 154.776 36.648L153.608 36.6436L152.701 41.8893H151.448L152.526 35.6341L154.815 35.6383C155.211 35.6469 155.565 35.7328 155.876 35.8961C156.186 36.0566 156.426 36.2855 156.594 36.5835C156.765 36.8785 156.834 37.235 156.8 37.6534C156.763 38.1086 156.621 38.4852 156.376 38.7832C156.131 39.081 155.821 39.3031 155.448 39.449C155.077 39.5923 154.681 39.6638 154.258 39.6638ZM162.486 40.884L162.311 41.8893H159.089L159.261 40.884H162.486ZM160.583 35.6341L159.5 41.8893H158.247L159.325 35.6341H160.583ZM162.533 38.1817L162.362 39.1612H159.56L159.731 38.1817H162.533ZM163.385 35.6341L163.209 36.6436H159.992L160.172 35.6341H163.385ZM169.025 38.1817L168.849 39.187H165.687L165.863 38.1817H169.025ZM166.68 35.6341L165.598 41.8893H164.344L165.422 35.6341H166.68ZM170.351 35.6341L169.268 41.8893H168.023L169.101 35.6341H170.351ZM176.735 40.884L176.559 41.8893H172.204L172.38 40.884H176.735ZM172.752 40.884L172.311 43.4232H171.139L171.507 40.884H172.752ZM177.637 40.884L177.09 43.4274H175.935L176.375 40.884H177.637ZM176.957 35.6341L176.782 36.6436H173.868L174.044 35.6341H176.957ZM177.843 35.6341L176.765 41.8893H175.515L176.598 35.6341H177.843ZM173.885 35.6341H175.148L174.54 38.1774C174.48 38.4322 174.413 38.6815 174.339 38.9249C174.268 39.1684 174.184 39.4047 174.086 39.6338C173.992 39.8601 173.885 40.0791 173.766 40.2912C173.646 40.5003 173.512 40.7007 173.364 40.8926C173.218 41.0816 173.055 41.2606 172.876 41.4297C172.696 41.5957 172.498 41.7489 172.281 41.8893H171.498L171.644 40.884L171.913 40.8926C172.133 40.7436 172.318 40.5661 172.469 40.3599C172.621 40.1508 172.747 39.9259 172.85 39.6855C172.953 39.4448 173.037 39.1969 173.102 38.9422C173.171 38.6843 173.232 38.4309 173.286 38.1817L173.885 35.6341ZM182.824 36.7683L180.317 41.8893H178.939L182.267 35.6341H183.149L182.824 36.7683ZM183.32 41.8893L182.558 36.635L182.605 35.6341H183.431L184.608 41.8893H183.32ZM183.637 39.5607L183.461 40.5703H180.257L180.432 39.5607H183.637ZM193.324 36.7683L190.817 41.8893H189.44L192.768 35.6341H193.649L193.324 36.7683ZM193.821 41.8893L193.059 36.635L193.107 35.6341H193.931L195.109 41.8893H193.821ZM194.137 39.5607L193.962 40.5703H190.758L190.933 39.5607H194.137ZM199.901 39.144H198.291L198.442 38.2591L199.682 38.2633C199.87 38.2633 200.051 38.2375 200.221 38.1861C200.396 38.1315 200.541 38.0441 200.657 37.924C200.777 37.8008 200.853 37.6361 200.886 37.4299C200.91 37.235 200.893 37.0818 200.834 36.9701C200.773 36.8584 200.678 36.7783 200.547 36.7295C200.419 36.678 200.267 36.6509 200.089 36.648L199.166 36.6436L198.257 41.8893H197.004L198.082 35.6341L200.128 35.6383C200.396 35.6411 200.655 35.6727 200.907 35.7328C201.158 35.793 201.379 35.8875 201.573 36.0164C201.768 36.1453 201.918 36.3158 202.023 36.5277C202.131 36.7396 202.175 37.0001 202.156 37.3096C202.135 37.6476 202.038 37.9253 201.865 38.143C201.691 38.3578 201.469 38.5196 201.196 38.6285C200.929 38.7373 200.642 38.8004 200.333 38.8175L199.901 39.144ZM199.392 41.8893H197.449L198.109 40.884L199.43 40.8884C199.619 40.8884 199.794 40.8568 199.956 40.7937C200.122 40.7279 200.261 40.6305 200.371 40.5016C200.482 40.3727 200.552 40.208 200.581 40.0076C200.608 39.8387 200.6 39.691 200.56 39.5651C200.52 39.4362 200.446 39.3373 200.337 39.2687C200.232 39.1969 200.091 39.157 199.914 39.1484L198.648 39.144L198.806 38.2591L200.261 38.2633L200.474 38.607C200.754 38.6214 200.996 38.6859 201.202 38.8004C201.409 38.9121 201.568 39.0711 201.676 39.2773C201.785 39.4835 201.829 39.7312 201.809 40.0204C201.781 40.4672 201.651 40.8281 201.419 41.1032C201.189 41.3781 200.893 41.5785 200.533 41.7046C200.177 41.8306 199.796 41.8922 199.392 41.8893ZM207.415 35.6341L206.337 41.8893H205.082L206.166 35.6341H207.415ZM209.27 35.6341L209.095 36.6436H204.162L204.339 35.6341H209.27ZM215.617 38.594L215.583 38.8949C215.526 39.2958 215.419 39.6826 215.261 40.0548C215.105 40.4272 214.899 40.7595 214.646 41.0515C214.392 41.3408 214.089 41.5699 213.739 41.739C213.39 41.905 212.996 41.9838 212.554 41.9752C212.131 41.9666 211.773 41.875 211.48 41.7003C211.189 41.5227 210.958 41.2878 210.787 40.9957C210.619 40.7036 210.505 40.3784 210.448 40.0204C210.392 39.6596 210.387 39.2901 210.43 38.9121L210.465 38.6157C210.522 38.2146 210.63 37.8293 210.787 37.46C210.947 37.0904 211.152 36.7611 211.408 36.4718C211.663 36.1796 211.966 35.9504 212.314 35.7844C212.665 35.6184 213.059 35.5396 213.495 35.5482C213.916 35.5539 214.272 35.6455 214.564 35.823C214.857 35.9979 215.089 36.2312 215.257 36.5233C215.429 36.8127 215.543 37.1377 215.6 37.4986C215.657 37.8567 215.663 38.2218 215.617 38.594ZM214.312 38.9121L214.354 38.6026C214.377 38.4079 214.389 38.1975 214.389 37.9713C214.392 37.7421 214.366 37.5229 214.312 37.3138C214.257 37.1019 214.16 36.9286 214.021 36.7939C213.884 36.6566 213.686 36.582 213.427 36.5705C213.147 36.5619 212.907 36.6178 212.707 36.7381C212.51 36.8584 212.345 37.0218 212.211 37.228C212.08 37.4313 211.975 37.6547 211.899 37.8982C211.825 38.1388 211.769 38.375 211.737 38.607L211.697 38.9163C211.672 39.1082 211.657 39.3201 211.655 39.5521C211.655 39.7813 211.682 40.0018 211.737 40.2138C211.79 40.4228 211.888 40.5961 212.027 40.7336C212.168 40.8712 212.366 40.9456 212.627 40.9571C212.903 40.9657 213.139 40.9083 213.337 40.7853C213.535 40.6621 213.703 40.4988 213.836 40.2954C213.971 40.0892 214.076 39.8658 214.154 39.6252C214.23 39.3817 214.284 39.144 214.312 38.9121Z" fill="#27AC5B"/>
</g>
<defs>
<clipPath id="clip0_1897_440">
<rect width="216" height="57" fill="white"/>
</clipPath>
</defs>
</svg>
